<?xml version="1.0" encoding="UTF-8" standalone="no"?>
<!-- Created with Inkscape (http://www.inkscape.org/) -->

<svg
   xmlns:dc="http://purl.org/dc/elements/1.1/"
   xmlns:cc="http://creativecommons.org/ns#"
   xmlns:rdf="http://www.w3.org/1999/02/22-rdf-syntax-ns#"
   xmlns:svg="http://www.w3.org/2000/svg"
   xmlns="http://www.w3.org/2000/svg"
   xmlns:sodipodi="http://sodipodi.sourceforge.net/DTD/sodipodi-0.dtd"
   xmlns:inkscape="http://www.inkscape.org/namespaces/inkscape"
   width="512"
   height="512"
   id="svg2"
   sodipodi:version="0.32"
   inkscape:version="0.48.2 r9819"
   version="1.0"
   sodipodi:docname="pne_logo.svg"
   inkscape:output_extension="org.inkscape.output.svg.inkscape"
   inkscape:export-filename="/Users/sgrimault/Desktop/pne_logo.png"
   inkscape:export-xdpi="5.6199999"
   inkscape:export-ydpi="5.6199999">
  <defs
     id="defs4">
    <inkscape:perspective
       sodipodi:type="inkscape:persp3d"
       inkscape:vp_x="0 : 526.18109 : 1"
       inkscape:vp_y="0 : 1000 : 0"
       inkscape:vp_z="744.09448 : 526.18109 : 1"
       inkscape:persp3d-origin="372.04724 : 350.78739 : 1"
       id="perspective10" />
    <inkscape:perspective
       id="perspective2452"
       inkscape:persp3d-origin="98.962639 : 65.619334 : 1"
       inkscape:vp_z="197.92528 : 98.429001 : 1"
       inkscape:vp_y="0 : 1000 : 0"
       inkscape:vp_x="0 : 98.429001 : 1"
       sodipodi:type="inkscape:persp3d" />
    <inkscape:perspective
       id="perspective2501"
       inkscape:persp3d-origin="372.04724 : 350.78739 : 1"
       inkscape:vp_z="744.09448 : 526.18109 : 1"
       inkscape:vp_y="0 : 1000 : 0"
       inkscape:vp_x="0 : 526.18109 : 1"
       sodipodi:type="inkscape:persp3d" />
    <inkscape:perspective
       id="perspective2510"
       inkscape:persp3d-origin="372.04724 : 350.78739 : 1"
       inkscape:vp_z="744.09448 : 526.18109 : 1"
       inkscape:vp_y="0 : 1000 : 0"
       inkscape:vp_x="0 : 526.18109 : 1"
       sodipodi:type="inkscape:persp3d" />
  </defs>
  <sodipodi:namedview
     id="base"
     pagecolor="#ffffff"
     bordercolor="#666666"
     borderopacity="1.0"
     inkscape:pageopacity="0.0"
     inkscape:pageshadow="2"
     inkscape:zoom="0.98994949"
     inkscape:cx="106.54415"
     inkscape:cy="275.63001"
     inkscape:document-units="px"
     inkscape:current-layer="layer1"
     showgrid="false"
     showguides="true"
     inkscape:guide-bbox="true"
     showborder="true"
     inkscape:window-width="1315"
     inkscape:window-height="871"
     inkscape:window-x="0"
     inkscape:window-y="0"
     inkscape:window-maximized="0" />
  <metadata
     id="metadata7">
    <rdf:RDF>
      <cc:Work
         rdf:about="">
        <dc:format>image/svg+xml</dc:format>
        <dc:type
           rdf:resource="http://purl.org/dc/dcmitype/StillImage" />
        <dc:title></dc:title>
      </cc:Work>
    </rdf:RDF>
  </metadata>
  <g
     inkscape:groupmode="layer"
     id="layer4"
     inkscape:label="Rectangles_de_fond"
     style="display:inline"
     transform="translate(-202.71498,-189.07581)" />
  <g
     inkscape:label="Logo_SVG_parc"
     inkscape:groupmode="layer"
     id="layer1"
     transform="translate(-202.71498,-189.07581)"
     style="display:inline">
    <rect
       y="195.07581"
       x="208.71498"
       height="500"
       width="500"
       id="rect3289"
       style="fill:#81007b;fill-opacity:1;fill-rule:evenodd;stroke:#000000;stroke-width:0;stroke-linecap:butt;stroke-linejoin:miter;stroke-miterlimit:4;stroke-opacity:1;stroke-dasharray:none;display:inline" />
    <path
       id="path2384"
       d="m 422.02514,615.87147 c -1.00101,-0.99284 -4.47991,-2.34165 -7.73096,-2.9973 -4.28373,-0.86398 -6.06651,-2.26069 -6.47603,-5.07364 -0.69936,-4.80385 -3.13065,-4.99475 -5.58889,-0.43886 -2.13908,3.96445 -7.11432,2.95657 -7.09772,-1.43783 0.006,-1.58497 1.19963,-5.14255 2.65251,-7.9057 1.45289,-2.76316 2.64163,-6.11762 2.64163,-7.45439 0,-2.92691 2.84335,-3.20821 4.56121,-0.45124 0.84178,1.35094 1.74917,1.06478 2.85854,-0.90144 1.12461,-1.99326 0.77683,-3.72222 -1.12887,-5.61245 -1.51481,-1.5025 -2.75419,-3.82346 -2.75419,-5.15774 0,-1.5429 -1.60924,-0.82982 -4.42087,1.95897 -2.43145,2.41172 -4.42085,5.53298 -4.42085,6.93618 0,1.40316 -1.59151,2.55123 -3.53669,2.55123 -1.94518,0 -3.53669,-1.00852 -3.53669,-2.24116 0,-2.52778 -4.82427,-7.05134 -9.3621,-8.77851 -1.67993,-0.63939 -3.01631,-3.0074 -3.01631,-5.3448 0,-3.54901 -0.69365,-4.06521 -4.49423,-3.3446 -2.47185,0.46867 -4.367,0.1618 -4.21145,-0.68173 0.15556,-0.84363 0.18855,-3.76877 0.0734,-6.50034 l -0.2094,-4.96647 -6.63129,4.04958 -6.63129,4.04961 3.0946,-4.72181 c 1.70203,-2.59702 3.0946,-5.07488 3.0946,-5.50636 0,-0.43151 -3.24894,-1.32896 -7.21985,-1.99437 -6.30329,-1.05632 -7.09703,-1.6953 -6.25237,-5.03334 0.66181,-2.61549 -0.13,-4.50318 -2.50605,-5.97504 -1.91041,-1.18341 -3.47352,-3.34577 -3.47352,-4.80532 0,-1.45954 -1.98937,-3.55276 -4.42084,-4.65161 -6.08826,-2.75145 -5.55701,-5.08047 0.86811,-3.80589 5.27609,1.04665 5.28417,1.03556 3.32223,-4.54677 -1.08171,-3.07775 -3.35466,-6.45568 -5.05104,-7.50647 -3.67003,-2.27334 -2.63599,-9.07396 1.16004,-7.62913 1.36785,0.52063 2.93993,-0.224 3.49348,-1.65477 1.80065,-4.65434 5.51635,-2.98394 4.54728,2.04419 -0.60665,3.14766 -0.25766,4.25472 1.08228,3.43334 1.08768,-0.66675 3.3344,0.35942 4.99266,2.28042 1.65832,1.92101 3.66889,3.09195 4.46799,2.60209 0.79911,-0.48987 1.45291,1.42715 1.45291,4.26002 0,2.83285 1.19363,6.13324 2.65253,7.33417 2.21609,1.82424 2.65252,1.57098 2.65252,-1.53922 0,-2.04749 0.79575,-3.7227 1.76833,-3.7227 0.9726,0 2.29565,-0.19734 2.94013,-0.4385 0.64446,-0.24117 1.26686,1.71663 1.38315,4.35067 0.20555,4.65803 5.06369,9.95113 9.23676,10.06384 4.15801,0.11219 7.66077,-2.14568 7.68715,-4.9553 0.0156,-1.585 0.74275,-4.00334 1.61744,-5.37407 1.35387,-2.12168 2.27019,-2.05045 6.16214,0.47891 5.74536,3.7339 5.78779,6.02654 0.15088,8.15225 -5.49454,2.07204 -6.16981,8.76984 -0.88419,8.76984 1.94519,0 3.5367,0.7893 3.5367,1.754 0,0.96467 0.72125,1.75397 1.60279,1.75397 0.88155,0 1.21009,-1.48949 0.73012,-3.30999 -0.47998,-1.82049 -0.0794,-3.79628 0.89014,-4.39064 2.84184,-1.74207 7.67792,0.91084 6.62441,3.63393 -0.53123,1.37309 0.31943,4.44219 1.89036,6.82022 2.33849,3.54002 3.32878,3.93469 5.46347,2.17745 1.43401,-1.18043 3.65447,-2.2987 4.93438,-2.48503 2.7075,-0.39413 4.87818,6.5278 3.31454,10.56947 -0.58948,1.52371 -0.1909,2.77035 0.88576,2.77035 1.07666,0 1.95754,-2.82522 1.95754,-6.27827 0,-6.00017 0.22478,-6.2293 5.07523,-5.17263 4.23566,0.92277 5.29667,0.43803 6.41368,-2.93009 l 1.33847,-4.03573 0.80308,4.1009 c 0.67585,3.45114 1.55081,3.92223 5.52262,2.97345 5.43087,-1.29736 9.14042,-5.41424 9.14042,-10.14405 0,-1.80193 0.79576,-2.78843 1.76834,-2.19221 0.97261,0.59621 1.76835,2.67248 1.76835,4.61395 0,2.81828 0.98042,3.41626 4.86295,2.96595 2.67462,-0.31022 5.79257,-1.74671 6.9288,-3.19222 1.1362,-1.44551 2.64903,-2.04974 3.36182,-1.34274 0.71282,0.70701 2.25768,-0.0196 3.43308,-1.61344 1.96031,-2.65909 2.67668,-2.56812 8.65974,1.0996 6.3282,3.87923 6.62877,3.90318 10.08204,0.8034 3.05266,-2.74014 3.79192,-2.83038 5.19272,-0.63382 0.8983,1.40868 1.6455,3.1532 1.66037,3.87672 0.0523,2.53982 5.85041,1.28289 8.08886,-1.75353 1.97204,-2.67496 3.00697,-2.79028 8.06123,-0.898 4.2532,1.59235 6.12598,1.64582 7.02648,0.20064 0.68463,-1.09877 3.09655,-1.50512 5.45247,-0.91861 5.28205,1.31493 9.59912,-4.26668 6.93726,-8.96936 -1.52651,-2.69689 -1.81544,-2.71869 -2.79011,-0.2104 -0.82532,2.12389 -2.87368,2.62083 -8.50218,2.06254 -7.96458,-0.78997 -11.3184,-2.22959 -5.19422,-2.22959 2.04986,0 4.21883,-0.7893 4.81994,-1.75398 0.60109,-0.96468 0.25018,-1.75396 -0.77981,-1.75396 -1.02999,0 -1.8727,-1.67522 -1.8727,-3.72271 0,-3.21447 -0.3865,-3.40456 -2.83092,-1.39237 -1.55701,1.2817 -3.9095,2.48737 -5.22777,2.67927 -3.04788,0.44371 -6.74151,-3.86637 -5.29831,-6.18255 0.60181,-0.96585 -1.518,-3.10086 -4.71071,-4.74447 -7.35901,-3.78843 -3.77951,-5.21671 4.48753,-1.79059 6.06197,2.51227 6.22561,2.47159 7.3108,-1.81704 0.87103,-3.44221 1.62423,-3.96355 3.49793,-2.42113 1.77786,1.46348 4.23501,1.33444 9.61816,-0.50511 6.13424,-2.09624 7.53643,-2.10487 9.24999,-0.057 2.2506,2.68974 11.44346,3.28788 12.96645,0.84367 1.42025,-2.27934 -4.57281,-4.12899 -6.66253,-2.05627 -2.62419,2.60287 -6.77943,-3.55573 -4.35445,-6.45391 1.01128,-1.20856 2.95983,-2.19742 4.33015,-2.19742 1.37032,0 2.94952,-1.18394 3.50934,-2.63096 1.235,-3.19219 5.31036,-3.46533 6.54173,-0.43848 0.53282,1.30975 0.94813,0.95666 1.03152,-0.877 0.19168,-4.21549 4.81802,-3.88169 5.95468,0.42962 0.95275,3.61365 5.88202,6.53124 7.80765,4.62123 0.60051,-0.59558 -0.3529,-2.66634 -2.11866,-4.60161 -1.76576,-1.93529 -2.53718,-3.5187 -1.71425,-3.5187 0.82292,0 0.0289,-1.06418 -1.76443,-2.36488 -3.48951,-2.53087 -2.39781,-6.40497 1.8049,-6.40497 1.40146,0 2.54813,-0.65773 2.54813,-1.46165 0,-2.8808 -2.20261,-3.54969 -6.43412,-1.95394 -5.80247,2.18817 -7.9635,-2.74419 -2.78007,-6.3453 1.996,-1.38669 4.15123,-4.87911 4.78935,-7.7609 0.63816,-2.88181 1.89478,-5.6899 2.79256,-6.24025 3.69792,-2.26687 1.38346,-5.85705 -4.11483,-6.38287 -5.49556,-0.52555 -5.74713,-0.87593 -5.74713,-8.0046 0,-4.79502 -0.7887,-7.45478 -2.21042,-7.45438 -2.59912,6.8e-4 -2.77631,-1.65851 -0.54979,-5.14854 1.34237,-2.10417 2.07179,-2.13518 4.43651,-0.18855 1.55652,1.28127 3.38458,1.77959 4.06236,1.10732 0.67777,-0.67227 0.12473,-1.9013 -1.22918,-2.7312 -2.06377,-1.26514 -1.97219,-2.2496 0.56678,-6.0931 1.66557,-2.52128 2.52883,-5.38573 1.91838,-6.36543 -0.61044,-0.97969 -0.207,-2.86036 0.89656,-4.17923 1.46953,-1.75631 1.47945,-2.72102 0.0371,-3.60524 -1.36011,-0.83376 -1.05667,-2.20767 0.98083,-4.44074 2.80636,-3.0758 2.70421,-3.20664 -2.09525,-2.68338 -2.77502,0.30253 -5.44334,-0.0308 -5.92963,-0.74093 -1.58713,-2.31741 -8.84172,-3.86159 -8.84172,-1.88203 0,1.02968 -0.80841,1.87219 -1.79643,1.87219 -0.98804,0 -1.62795,-2.19315 -1.42204,-4.87362 0.51823,-6.74591 -1.64129,-9.95425 -4.89651,-7.27463 -1.37229,1.12968 -2.4951,3.31037 -2.4951,4.84598 0,2.48299 -0.33153,2.46318 -2.9953,-0.17899 -2.77609,-2.75352 -3.22943,-2.76078 -6.19438,-0.0993 -3.0469,2.73498 -3.10934,2.6162 -1.31241,-2.49653 1.03766,-2.95247 3.42444,-6.74851 5.30398,-8.43563 2.73832,-2.45801 2.99308,-3.57449 1.28215,-5.61926 -1.17434,-1.4035 -2.96199,-4.18118 -3.97254,-6.17264 -2.35646,-4.64379 -6.25824,-5.95459 -6.25824,-2.10245 0,1.86822 -0.9476,2.60411 -2.562,1.98966 -1.52615,-0.58089 -2.98329,0.34145 -3.604,2.28127 -0.57312,1.79104 -2.16483,3.68376 -3.53716,4.2061 -1.74893,0.66565 -2.17497,0.0583 -1.42458,-2.03045 0.58879,-1.63905 -0.70312,-0.80956 -2.87093,1.84332 -4.54481,5.56179 -10.19574,6.8278 -7.40706,1.65947 0.9838,-1.82331 1.05962,-4.20325 0.17898,-5.61666 -1.99904,-3.20829 -0.0336,-6.35166 2.02971,-3.24595 1.27234,1.91524 2.10203,1.70167 4.25092,-1.09431 3.47924,-4.52688 2.6362,-8.37917 -2.30547,-10.53518 -2.18266,-0.95226 -3.96843,-2.99039 -3.96843,-4.52913 0,-1.66396 -2.48359,-3.55379 -6.12843,-4.66333 l -6.12846,-1.86559 0.21532,5.68065 c 0.26093,6.88399 -1.60751,10.3045 -4.93659,9.03738 -1.4273,-0.54324 -2.47364,0.14815 -2.47364,1.63439 0,1.41677 -0.79576,2.57592 -1.76834,2.57592 -2.62856,0 -2.13963,-5.70958 0.85166,-9.94554 2.68691,-3.80492 2.20167,-4.80659 -4.05329,-8.36721 -3.11235,-1.77168 -1.79192,18.08964 1.32983,20.00332 1.63379,1.00153 1.52083,1.57564 -0.45821,2.32891 -1.68489,0.6413 -3.03837,-0.37163 -3.77524,-2.82536 -1.13431,-3.77716 -1.16726,-3.78037 -2.62895,-0.25622 -0.81414,1.96284 -2.59856,4.4894 -3.96537,5.61455 -2.07014,1.70408 -2.36617,1.03488 -1.77271,-4.00733 0.39185,-3.32921 0.006,-6.05306 -0.85634,-6.05306 -2.28308,0 -7.2334,6.15513 -7.95998,9.8973 -0.34358,1.76946 -2.00809,3.48147 -3.69895,3.80445 -2.42205,0.46266 -3.07456,-0.64944 -3.07555,-5.24179 -10e-4,-5.0989 -0.6008,-5.8635 -4.78807,-6.10462 -6.97678,-0.40173 -9.12918,3.5232 -6.99798,12.76083 1.84359,7.99107 -0.31383,16.45534 -4.19426,16.45534 -1.05084,0 -1.34283,-0.91125 -0.64885,-2.02497 0.78175,-1.25461 0.48509,-1.54886 -0.7798,-0.77346 -2.90114,1.77841 -2.52884,4.55242 0.61095,4.55242 2.95025,0 3.42096,3.09638 1.0381,6.82891 -0.9432,1.4774 -3.09495,2.04591 -5.44074,1.43746 -3.54511,-0.91952 -3.64692,-0.75055 -1.17805,1.95535 1.68089,1.84225 2.5024,5.46245 2.17324,9.57704 -0.70081,8.76064 -1.9574,9.6259 -4.2999,2.96086 -1.11355,-3.1684 -2.7291,-4.99135 -3.82702,-4.31834 -1.3419,0.82261 -1.31218,1.86721 0.10131,3.55639 1.53728,1.83724 1.15463,3.29295 -1.65062,6.2796 -2.68872,2.86252 -3.1537,4.48322 -1.76308,6.14519 1.03881,1.24151 1.3754,3.08115 0.74796,4.0881 -0.62744,1.00693 0.0998,1.8308 1.61612,1.8308 3.39322,0 3.42892,3.00141 0.10447,8.76987 -3.32455,5.76847 -3.28886,8.76987 0.10446,8.76987 1.51629,0 2.29364,-0.74343 1.72748,-1.65206 -0.89274,-1.43273 8.22417,-12.37974 10.31013,-12.37974 0.4218,0 0.76693,2.7625 0.76693,6.13891 0,5.05877 -0.65062,6.1389 -3.69785,6.1389 -3.62587,0 -3.63107,0.0484 -0.26737,2.48805 3.3001,2.39347 3.24576,2.53397 -1.43037,3.69805 -5.29277,1.31762 -5.69542,2.11784 -3.0654,6.09171 1.54782,2.33862 1.93459,2.33862 3.48087,0 0.95679,-1.44701 2.04873,-3.42024 2.42656,-4.38492 0.37781,-0.9647 3.41368,0.81213 6.74638,3.9485 4.71617,4.43836 6.53028,5.23544 8.18349,3.59565 1.65325,-1.63981 2.12411,-1.32919 2.12411,1.40111 0,1.92938 -0.88527,4.38601 -1.96729,5.45924 -3.76123,3.73067 -0.94211,5.85499 4.23241,3.18933 2.70473,-1.39334 6.08669,-2.08838 7.51548,-1.54456 1.4288,0.54385 2.59781,0.19305 2.59781,-0.77961 0,-2.65221 12.77787,-9.83638 16.55263,-9.30644 2.10595,0.29565 2.98104,-0.37869 2.43148,-1.87371 -0.90606,-2.46466 -1.79638,-2.5139 -7.48988,-0.41412 -3.47944,1.28323 -3.48264,1.24329 -0.19804,-2.46809 2.88744,-3.2626 3.00695,-4.17358 0.88418,-6.74048 -2.20367,-2.66476 -2.03005,-2.85947 1.6992,-1.90574 3.46422,0.88602 4.00538,0.49978 3.26016,-2.32678 -1.10783,-4.20193 -0.93786,-4.1981 4.04897,0.0917 3.53181,3.0382 3.73489,3.86067 1.59684,6.46729 -2.16434,2.6386 -2.07236,2.84601 0.78965,1.781 1.78157,-0.66296 4.34281,-1.20538 5.6916,-1.20538 1.45342,0 2.03776,-1.07175 1.43454,-2.63095 -0.64454,-1.66601 0.0244,-2.63098 1.82385,-2.63098 3.09438,0 3.83799,-2.69018 1.19196,-4.31222 -0.90737,-0.55622 -1.5963,-4.35191 -1.53097,-8.43488 0.23744,-14.83788 0.14366,-15.0688 -6.1031,-15.0474 -8.99221,0.0308 -17.34466,-2.19221 -16.04905,-4.27153 0.72108,-1.15724 0.0488,-1.43407 -1.78638,-0.73559 -1.85671,0.70672 -2.94261,0.2387 -2.94261,-1.26822 0,-2.17545 -5.03748,-5.36757 -6.37577,-4.04016 -0.31048,0.30796 -1.76763,3.28637 -3.23806,6.61868 -2.51887,5.70821 -2.74001,5.82757 -3.82244,2.06311 -0.84026,-2.92221 -2.04016,-3.71506 -4.46637,-2.95127 -6.12587,1.92847 -3.39289,-2.31985 5.06857,-7.87896 7.20069,-4.73076 9.38787,-5.34371 15.47302,-4.33633 3.89783,0.64526 9.20114,2.65693 11.78516,4.47034 4.63451,3.25248 4.68564,3.24959 3.77252,-0.21385 -1.42362,-5.39975 2.59413,-4.16039 5.676,1.75089 1.70261,3.26569 4.23558,5.35154 6.67672,5.49819 2.16334,0.13 5.92275,0.3273 8.35423,0.4385 2.43145,0.11126 4.62576,0.59685 4.87621,1.07921 1.05626,2.03432 -4.07312,12.2778 -6.14808,12.2778 -1.24565,0 -2.26482,1.07067 -2.26482,2.37924 0,1.51341 1.92123,2.31126 5.2795,2.19246 4.02501,-0.1423 5.0637,-0.86444 4.37126,-3.03879 -0.60326,-1.89438 0.399,-3.19108 2.98493,-3.86183 5.30372,-1.37569 7.17769,0.13547 5.05253,4.07404 -0.97522,1.80741 -1.77312,4.89188 -1.77312,6.85438 0,2.45115 -0.8304,3.25216 -2.65252,2.55863 -1.52098,-0.57893 -2.73775,0.006 -2.85231,1.37053 -0.94816,11.29517 -0.86655,13.78093 0.45234,13.78093 0.83368,0 1.5158,2.05765 1.5158,4.57261 0,3.20887 -0.74179,4.29025 -2.48725,3.62587 -1.58254,-0.60232 -3.28292,0.95867 -4.67475,4.2915 -1.47249,3.52605 -3.80152,5.55837 -7.12559,6.21779 -9.26694,1.8383 -8.21885,8.70268 1.96782,12.88783 7.14874,2.93704 6.61869,5.78053 -0.91489,4.90818 -3.38872,-0.39241 -6.42472,0.0705 -6.74669,1.02843 -0.32195,0.95801 -3.41253,0.008 -6.86792,-2.10941 -7.35401,-4.50809 -8.51763,-4.70045 -8.51763,-1.40798 0,1.34381 -1.19363,2.89762 -2.65251,3.4529 -1.45887,0.55527 -2.6525,0.16064 -2.6525,-0.87698 0,-1.03764 -1.22376,-1.42079 -2.71946,-0.85152 -1.53584,0.58455 -3.14992,-0.0775 -3.70845,-1.52124 -0.86395,-2.23313 -1.31856,-2.2294 -3.59607,0.0296 -3.61038,3.58104 -7.1868,3.23125 -9.42782,-0.92207 -2.17748,-4.0356 -5.30503,-4.66325 -5.30503,-1.06463 0,1.34382 -1.25871,2.92239 -2.79714,3.50794 -4.05199,1.54225 -4.27624,1.41702 -4.27624,-2.38826 0,-2.44537 -0.82605,-3.13848 -2.83099,-2.37536 -1.55703,0.59262 -3.53423,-0.0242 -4.39376,-1.37054 -1.09237,-1.71113 -1.57096,-0.73208 -1.58989,3.25237 -0.0156,3.13522 -0.82283,5.70041 -1.79541,5.70041 -0.9726,0 -1.76836,-1.57363 -1.76836,-3.49695 0,-4.61828 -6.46914,-3.76484 -10.69455,1.41093 l -3.0637,3.75272 -0.76609,-5.17727 c -0.42133,-2.84751 -0.0527,-5.88496 0.81939,-6.74989 0.93509,-0.92749 -0.11126,-1.99498 -2.55064,-2.60228 -2.46745,-0.61426 -4.95467,-3.18061 -6.16505,-6.36126 -2.27928,-5.98935 -8.2615,-7.31304 -10.22344,-2.26217 -1.11672,2.87491 -1.30987,2.86167 -3.04742,-0.20885 -1.37853,-2.43603 -1.24531,-3.65219 0.51842,-4.73337 1.78534,-1.09444 1.32315,-1.84044 -1.86495,-3.01022 -2.65262,-0.97331 -3.48809,-2.01523 -2.2329,-2.78468 1.41134,-0.86517 0.97887,-2.89984 -1.45938,-6.86625 -5.02331,-8.1716 -4.64722,-11.18482 0.94258,-7.55203 5.26199,3.41975 5.94023,0.54031 0.88418,-3.75362 -5.1252,-4.35267 -4.79137,-8.55649 0.39346,-4.9544 2.16157,1.50172 4.94674,2.73041 6.18921,2.73041 4.15529,0 2.32095,-2.92247 -3.93016,-6.26156 -3.40406,-1.81831 -6.1892,-3.85945 -6.1892,-4.53586 0,-0.67642 -1.24057,-2.46029 -2.75677,-3.96418 -1.51623,-1.50391 -3.01702,-4.91476 -3.33506,-7.57969 -0.31809,-2.6649 -0.66903,-5.43724 -0.77993,-6.16078 -0.11091,-0.72352 -1.09018,-1.31548 -2.17623,-1.31548 -1.12349,0 -1.56375,1.55821 -1.02141,3.61524 1.43028,5.42501 -3.9192,6.60811 -7.8895,1.74486 -3.73081,-4.56993 -4.71369,-11.0103 -1.13923,-7.46486 3.78938,3.75859 6.89043,2.51316 5.67751,-2.28017 -0.82593,-3.26408 -0.40918,-4.38493 1.63032,-4.38493 1.50692,0 3.23164,0.7893 3.83273,1.75398 1.94589,3.12293 4.69191,1.85626 3.57087,-1.64716 -0.75335,-2.35437 0.0263,-3.9928 2.53335,-5.32363 3.73011,-1.98006 4.72951,-7.87299 2.0473,-12.07167 -1.05975,-1.65892 -1.88658,-1.79174 -2.72981,-0.4385 -1.84412,2.95963 -4.02441,2.32291 -5.02363,-1.46707 -0.51892,-1.96824 0.4097,-4.58265 2.19787,-6.18777 2.84852,-2.55693 3.33469,-2.45957 6.07169,1.21583 l 2.97525,3.99531 -1.08466,-5.26193 c -3.08808,-14.98095 -3.06062,-16.59883 0.30255,-17.83251 1.80729,-0.6629 3.79739,-1.96168 4.42244,-2.88613 0.62505,-0.92444 3.10318,-1.19119 5.50698,-0.59277 3.56327,0.88703 4.25006,1.98378 3.71835,5.93779 l -0.65217,4.84978 1.94567,-4.88835 c 2.09807,-5.2713 4.19477,-5.2716 14.63098,-0.002 3.28094,1.65665 5.67194,1.95715 6.78535,0.85276 1.11345,-1.10438 1.04184,-2.12053 -0.20317,-2.88372 -3.50382,-2.14791 -2.06401,-6.23337 2.19675,-6.23337 3.13446,0 4.08561,-0.94345 3.97879,-3.94644 -0.081,-2.2749 0.79583,-3.7607 2.07002,-3.50792 2.93784,0.58277 2.78729,-0.49276 -0.52952,-3.78262 -1.97338,-1.95735 -2.41306,-4.44591 -1.57154,-8.89514 1.37149,-7.25131 4.79533,-8.41542 3.9825,-1.35404 -0.57934,5.03323 0.0679,5.73697 5.19193,5.64462 2.80009,-0.0506 2.76794,-0.30083 -0.33799,-2.63094 -1.88792,-1.41637 -2.68368,-2.62845 -1.76835,-2.69356 0.91534,-0.065 4.25045,-0.45311 7.41138,-0.86222 5.50916,-0.71306 7.7199,1.3182 3.94993,3.62923 -2.01988,1.2382 -0.65746,4.36727 1.90156,4.36727 0.91517,0 1.66396,-1.08529 1.66396,-2.41173 0,-1.32645 2.38727,-2.88528 5.30503,-3.46409 6.21231,-1.23237 6.55442,-2.65643 1.84323,-7.67219 -3.44898,-3.67195 -3.44488,-3.69664 1.10661,-6.65464 3.76843,-2.44909 4.83443,-2.55266 6.08727,-0.59157 2.02924,3.1765 1.95776,5.00845 -0.19537,5.00845 -0.97261,0 -1.76836,1.18393 -1.76836,2.63097 0,4.49221 6.99943,3.05222 8.86877,-1.82458 1.33803,-3.4907 2.38158,-4.12168 4.8192,-2.91393 4.68454,2.32108 18.14223,2.57142 18.14223,0.33746 0,-1.30594 0.98078,-1.36778 3.09349,-0.19499 2.23607,1.24117 3.94906,0.94912 6.18022,-1.05364 2.86485,-2.57157 3.16625,-2.37636 4.193,2.71561 1.36322,6.76075 5.27388,10.48001 8.08624,7.69049 1.07319,-1.06448 4.10799,-1.5076 6.74395,-0.98468 3.388,0.6721 5.11012,0.13018 5.87581,-1.849 1.63343,-4.22204 7.68077,-3.44477 8.92131,1.14673 1.83393,6.78756 1.24806,8.33137 -3.16165,8.33137 -2.35194,0 -5.53496,0.47911 -7.07338,1.06466 -5.10662,1.94366 -2.89502,4.19727 4.11904,4.19727 5.51376,0 7.82134,-1.06697 11.38007,-5.26193 4.7562,-5.60647 8.22891,-6.80742 8.22891,-2.84572 0,1.32891 1.18594,3.39244 2.63542,4.58563 1.73913,1.43162 2.26244,3.74161 1.53873,6.79216 l -1.09666,4.62273 3.72712,-3.83141 c 3.4758,-3.57303 4.08148,-3.656 8.98301,-1.2307 3.36154,1.66335 4.90086,3.51841 4.27084,5.14687 -0.60919,1.57464 0.0992,2.54619 1.85665,2.54619 3.12229,0 3.95541,-6.12613 1.07336,-7.89286 -3.09801,-1.89911 -1.89998,-6.1389 1.73465,-6.1389 2.38255,0 3.84605,1.54278 4.57555,4.82341 0.58991,2.65289 1.26566,5.60522 1.5017,6.56074 0.23605,0.95551 1.55901,-0.56477 2.93994,-3.37844 1.3809,-2.81366 3.70437,-5.46999 5.16325,-5.90299 2.04113,-0.60581 2.17982,-0.28806 0.60172,1.37843 -1.47048,1.55286 -1.54059,3.61739 -0.2477,7.29601 1.54218,4.38796 1.09761,6.18768 -3.07241,12.43778 -2.93329,4.39654 -4.09489,7.56558 -2.91596,7.95536 1.18194,0.39076 1.54024,2.72726 0.9029,5.88801 -0.87552,4.34204 -0.40908,5.40808 2.72158,6.22014 4.32575,1.12202 4.91654,4.46621 1.31306,7.43253 -1.90622,1.56916 -3.12935,1.3705 -5.39445,-0.8762 -2.7268,-2.70462 -3.10252,-2.67848 -5.43613,0.37798 -3.12849,4.09755 -3.21373,5.42359 -0.40893,6.35993 1.73281,0.57849 1.6967,1.3553 -0.16709,3.59515 -1.30768,1.57147 -2.00882,3.87035 -1.55809,5.10867 0.489,1.34342 1.76105,0.26172 3.15416,-2.6822 1.52292,-3.21822 4.14502,-5.29276 7.54145,-5.96652 3.31441,-0.65749 6.24565,-2.9184 8.06515,-6.22079 5.93625,-10.77412 8.02057,-12.48824 12.37485,-10.1768 3.19114,1.69395 3.56076,2.60421 1.87542,4.61841 -1.64665,1.96799 -1.57599,2.51443 0.32792,2.53549 1.95504,0.0217 1.92687,0.34065 -0.14483,1.64053 -1.41951,0.89067 -3.75357,0.9577 -5.20932,0.14971 -1.89035,-1.04929 -3.29086,-0.21503 -4.94367,2.94488 -3.02967,5.79223 -2.84701,7.49517 0.354,3.30023 2.13343,-2.79589 2.71294,-2.9113 3.56463,-0.70988 1.46422,3.78467 -0.40359,12.28864 -3.06723,13.96496 -1.68155,1.05828 -1.47914,1.43773 0.77749,1.45758 2.52154,0.0223 2.75922,0.78761 1.37003,4.41178 -1.08072,2.81942 -1.06509,4.38494 0.0437,4.38494 2.7476,0 1.99474,4.78377 -0.92793,5.89621 -1.4589,0.55525 -2.65254,2.61292 -2.65254,4.57258 0,3.73021 1.35626,4.28279 6.08974,2.48118 2.19992,-0.83736 2.38347,-1.63012 0.81226,-3.50796 -1.66367,-1.98832 -0.89292,-2.42612 4.27135,-2.42612 7.74192,0 9.29991,2.04733 4.70005,6.17633 -3.67509,3.29887 -4.82641,11.36339 -1.62227,11.36339 1.02999,0 1.4524,0.67457 0.93867,1.49904 -0.51372,0.82445 1.03081,3.32989 3.43233,5.56763 5.4515,5.0798 5.71875,12.29946 0.57328,15.48676 -3.30503,2.04724 -3.65625,1.9959 -2.72976,-0.39892 0.58484,-1.51163 0.38572,-3.16385 -0.44247,-3.67155 -0.82822,-0.50771 -2.02989,0.43151 -2.67042,2.08714 -0.93094,2.4063 -1.46062,2.53513 -2.64011,0.64222 -0.81153,-1.30243 -2.41207,-1.7939 -3.55676,-1.09221 -1.52343,0.9339 -1.30854,2.12268 0.80167,4.43551 3.21666,3.52546 0.55994,6.80212 -3.17206,3.91228 -3.08493,-2.38878 -10.09053,-3.84314 -10.09053,-2.09482 0,0.81898 -1.58828,1.18567 -3.52954,0.81487 -4.64024,-0.88637 -8.25025,5.25711 -5.21837,8.88059 1.15917,1.3854 3.20378,2.51887 4.54358,2.51887 3.00106,0 3.00469,0.26574 0.0802,5.85688 -2.15345,4.11706 -2.5973,4.26432 -5.16791,1.71462 -3.54581,-3.51701 -8.39139,-1.81218 -8.39139,2.95232 0,3.97351 5.55288,7.1554 6.6726,3.82351 0.38253,-1.13824 1.42495,-2.06952 2.31647,-2.06952 2.14298,0 2.07256,6.40959 -0.11501,10.46381 -2.54906,4.72426 1.34202,5.50407 13.48891,2.70339 5.6772,-1.309 10.63545,-2.06925 11.01838,-1.68944 0.38291,0.37978 -1.79385,2.09641 -4.83719,3.81474 -3.04335,1.71831 -5.53841,4.01418 -5.54455,5.10193 -0.006,1.08772 -1.35755,3.06093 -3.00313,4.38491 -2.53878,2.04262 -2.76935,2.04066 -1.5222,-0.0137 1.00927,-1.66185 0.71537,-2.17061 -0.93803,-1.62397 -1.3243,0.43786 -2.94725,2.7108 -3.60658,5.05098 -0.65932,2.3402 -1.27809,3.37221 -1.37504,2.2934 -0.30716,-3.41811 -14.75006,-4.33776 -18.2854,-1.16435 -2.85823,2.56566 -3.11098,2.53923 -3.11098,-0.32502 0,-6.05273 -4.8053,0.56798 -5.81122,8.00667 -1.19252,8.8188 -2.39064,10.13743 -5.44558,5.9935 -1.34878,-1.82957 -3.54433,-2.78266 -5.07128,-2.20148 -1.481,0.56369 -3.5722,0.15264 -4.64711,-0.91358 -3.54055,-3.51177 -4.54054,0.46474 -1.43021,5.6873 2.97551,4.99621 2.95176,5.17467 -0.97714,7.33827 -2.21476,1.21965 -4.5573,2.2455 -5.2057,2.27967 -0.6484,0.0342 -1.7757,0.65413 -2.50515,1.37765 -0.72944,0.72351 -2.78515,1.31546 -4.56824,1.31546 -3.88017,0 -4.19679,2.29241 -0.71276,5.16042 2.02288,1.6652 2.92033,1.35705 4.48308,-1.5392 1.07464,-1.99168 3.47043,-3.62122 5.324,-3.62122 1.85355,0 3.86192,-0.78927 4.46301,-1.75394 1.69847,-2.72588 4.91912,-2.06389 3.81712,0.78457 -0.75309,1.94652 0.95549,2.68454 7.32627,3.1646 l 8.30838,0.62606 -5.74712,2.48184 c -4.07265,1.75874 -5.74711,3.6474 -5.74711,6.48224 0,2.20024 -0.71064,4.00041 -1.57914,4.00041 -0.86855,0 -2.04426,1.20218 -2.61274,2.67151 -0.84042,2.1723 -0.38681,2.32825 2.42705,0.83456 1.90333,-1.01036 5.37361,-1.36079 7.71175,-0.7787 2.33813,0.58206 7.07352,0.28532 10.52308,-0.65941 5.00504,-1.37072 6.08962,-1.24637 5.36927,0.61556 -0.4965,1.28331 -3.22616,3.13665 -6.06595,4.11856 -2.8398,0.9819 -5.16325,2.65044 -5.16325,3.70783 0,1.25512 -4.14366,1.74347 -11.93633,1.40673 -6.56498,-0.28369 -13.66206,0.10891 -15.77127,0.87256 -2.93969,1.06428 -4.00482,0.65481 -4.56261,-1.75397 -0.60669,-2.62006 -1.10206,-2.37678 -2.98033,1.46368 -1.89782,3.8805 -3.16196,4.4845 -8.02535,3.83445 -4.12131,-0.5509 -6.07627,0.0137 -6.8339,1.97133 -1.78541,4.61494 -6.48294,3.15314 -7.59532,-2.36358 -0.65067,-3.2269 -2.4244,-5.47773 -4.81872,-6.11497 -5.48364,-1.45937 -17.05633,-1.28317 -17.02459,0.2592 0.0658,3.19402 3.03046,5.42819 7.93622,5.98064 3.92024,0.44146 5.44634,1.62374 5.86437,4.54319 0.31127,2.174 -0.36934,3.94644 -1.51546,3.94644 -1.14427,0 -1.65618,-1.09681 -1.13756,-2.43736 0.64992,-1.6799 -0.32213,-2.36127 -3.12781,-2.19246 l -4.07077,0.24489 4.46758,4.10758 c 3.69842,3.40039 5.17196,3.78924 8.55889,2.2586 2.5871,-1.16918 4.47795,-1.22844 5.14299,-0.16103 0.57843,0.92828 -0.18895,1.68783 -1.7052,1.68783 -1.90086,0 -2.75688,1.67922 -2.75688,5.40805 0,3.58592 -0.74477,5.13724 -2.21043,4.60419 -1.21574,-0.44214 -1.99177,-1.75052 -1.72452,-2.90749 0.26723,-1.15698 -0.38314,-1.57084 -1.4453,-0.91974 -1.09143,0.66904 -2.35008,-0.4051 -2.89456,-2.47022 -0.52988,-2.00974 -3.38371,-4.85166 -6.34187,-6.31538 -6.3615,-3.14773 -6.60346,-3.18098 -6.60346,-0.90737 0,0.96467 1.09622,1.75397 2.43601,1.75397 1.33979,0 3.35056,1.09306 4.46837,2.42898 1.6239,1.94077 1.10403,2.66011 -2.58637,3.5788 -5.18737,1.29136 -11.39137,-0.13449 -11.39137,-2.61802 0,-0.89967 -2.07451,-1.63577 -4.61007,-1.63577 -3.35026,0 -4.33471,0.71165 -3.60252,2.60419 1.28671,3.32592 -4.33424,6.47646 -7.78301,4.36235 -2.02483,-1.24126 -2.09545,-2.00192 -0.34681,-3.73636 2.52509,-2.50457 2.87889,-4.98417 0.71116,-4.98417 -0.81647,0 -2.39092,1.97323 -3.49878,4.38494 -1.37334,2.98965 -3.43307,4.38493 -6.47307,4.38493 -4.89393,0 -6.00355,-2.54465 -1.80623,-4.14223 3.54855,-1.35065 3.39939,-6.38161 -0.18914,-6.38161 -1.79945,0 -2.4684,-0.96497 -1.82386,-2.63094 0.55984,-1.44706 0.30394,-2.63097 -0.56866,-2.63097 -3.59564,0 -6.7278,5.55527 -7.84592,13.9157 -1.53519,11.47867 -3.90581,11.56034 -3.10566,0.10692 0.52134,-7.46283 0.18953,-8.61976 -2.21045,-7.70631 -1.75412,0.66763 -2.82387,0.14854 -2.82387,-1.37055 0,-1.34497 -1.59952,-2.56487 -3.55445,-2.71094 -1.95494,-0.14601 -4.83481,-1.53555 -6.39969,-3.08775 -5.76491,-5.71802 -4.63043,-0.63359 1.23328,5.52746 3.33759,3.50683 5.07364,5.81627 3.85791,5.13211 -3.20213,-1.80196 -2.80584,4.17327 0.51843,7.81665 2.31666,2.53911 2.34922,3.13537 0.21549,3.9475 -1.38237,0.52615 -3.33238,0.14424 -4.33336,-0.84858 z m 15.4051,-24.95107 c 1.41559,-1.69182 1.48408,-2.83442 0.21655,-3.61147 -2.46925,-1.51368 -5.39091,0.41508 -5.39091,3.55883 0,3.22042 2.50248,3.24589 5.17436,0.0527 z m 85.19321,-11.20447 c -2.32507,-0.76874 -7.25541,2.74086 -7.25541,5.16461 0,0.8688 2.09806,0.21612 4.66234,-1.4504 2.56429,-1.66654 3.73116,-3.33794 2.59307,-3.71421 z m -80.84044,-0.6715 c -0.57374,-0.92077 -2.19762,-1.23471 -3.60865,-0.69766 -1.43264,0.54528 -2.08842,0.21084 -1.4851,-0.75741 0.5942,-0.95364 0.28461,-1.73388 -0.68797,-1.73388 -2.91054,0 -4.36505,3.79807 -2.00788,5.24303 2.86888,1.75865 9.13561,0.10622 7.7896,-2.05408 z m 36.09615,1.72216 c 3.3557,-3.32842 2.54201,-6.44561 -1.41468,-5.41933 -1.95741,0.50772 -3.53669,2.39246 -3.53669,4.22072 0,3.78738 1.88208,4.24297 4.95137,1.19861 z m -79.89728,-3.49212 c 0.72942,-1.17061 0.23642,-2.44115 -1.12141,-2.89007 -1.33267,-0.44062 -4.29489,-2.65774 -6.58267,-4.92694 -5.00779,-4.96707 -5.17807,-4.9871 -7.39953,-0.87001 -3.54993,6.5792 11.14912,15.03352 15.10361,8.68702 z m -9.93461,-1.41899 c 0,-2.05867 1.3592,-2.05867 6.1892,0 3.13396,1.33575 2.98291,1.52144 -1.32624,1.63067 -2.67464,0.0677 -4.86296,-0.666 -4.86296,-1.63067 z m 60.12371,-2.81863 c 0,-1.8496 -0.96163,-2.45259 -2.79716,-1.75398 -1.53842,0.58559 -3.32887,1.07673 -3.97878,1.09151 -1.58213,0.036 3.75672,3.41997 5.44967,3.45424 0.72945,0.0156 1.32627,-1.24152 1.32627,-2.79177 z m 99.98414,-4.31395 c 2.07363,-3.3279 -0.95069,-4.14909 -4.03044,-1.09441 -2.75674,2.73439 -2.76158,2.96508 -0.0623,2.96508 1.6099,0 3.45161,-0.84182 4.0927,-1.87067 z m -85.8374,-5.14523 c 0,-0.96469 -1.2406,-1.75398 -2.75688,-1.75398 -1.51629,0 -2.31659,-0.70658 -1.77849,-1.57018 0.53811,-0.86358 -0.27578,-2.04752 -1.80862,-2.63096 -7.90057,-3.00709 -8.1343,0.77414 -0.2873,4.64775 7.08751,3.49865 6.63129,3.40872 6.63129,1.30737 z M 357.98543,548.45413 c 0,-0.36422 -1.19364,-0.66222 -2.65251,-0.66222 -1.4589,0 -2.65252,1.28059 -2.65252,2.84573 0,2.33066 0.48007,2.45051 2.65252,0.66223 1.45887,-1.20094 2.65251,-2.48153 2.65251,-2.84574 z m 163.62671,-30.39167 c -0.65089,-1.0446 -2.00917,-1.39308 -3.01838,-0.77442 -1.18809,0.72831 -1.00723,1.63223 0.51306,2.56418 2.83777,1.73957 4.12949,0.81682 2.50532,-1.78976 z m -44.16826,-42.03061 c -1.69157,-2.71473 -3.96314,-2.35796 -5.19082,0.81526 -0.60387,1.56091 -0.30743,2.26494 0.69498,1.65046 0.96145,-0.58938 1.74809,-0.0779 1.74809,1.13667 0,1.6215 0.52292,1.68964 1.96794,0.25636 1.08235,-1.07356 1.43328,-2.80999 0.77981,-3.85875 z m -40.35456,0.0398 c -0.14015,-1.84555 -1.21782,-2.94755 -2.43095,-2.4858 -1.19855,0.45619 -1.74639,1.94806 -1.21747,3.31525 1.40069,3.62049 3.94249,3.04262 3.64842,-0.82945 z m -22.51687,-0.006 c 0,-0.86147 -1.25872,-2.04541 -2.79716,-2.63093 -4.32587,-1.64652 -4.89743,-1.28954 -2.5079,1.5663 2.4397,2.91577 5.30506,3.49078 5.30506,1.06463 z m 71.59675,-6.76505 c -0.32583,-1.68819 -0.65328,-3.31335 -0.72771,-3.61144 -0.0744,-0.29812 -0.9697,-0.0305 -1.98951,0.59462 -1.26755,0.77704 -1.19904,1.91967 0.21655,3.61147 2.71259,3.24194 3.21794,3.12175 2.50067,-0.59465 z m 128.2261,-12.7163 c 0,-3.66673 -2.67115,-5.99954 -5.13809,-4.48724 -0.92257,0.56554 -0.74745,2.77646 0.4131,5.21569 2.24456,4.71752 4.72499,4.33513 4.72499,-0.72845 z m -205.73282,0.96631 c -0.69045,-1.78467 -0.13371,-2.21827 1.86922,-1.45587 1.89998,0.72312 2.42557,0.40041 1.57396,-0.96634 -0.70327,-1.12864 -0.38897,-2.05203 0.69842,-2.05203 1.0874,0 1.47725,-0.80217 0.86636,-1.78258 -0.61091,-0.98045 -2.05042,-1.22358 -3.19897,-0.54028 -1.18963,0.7077 -1.04388,-0.0348 0.3387,-1.72538 1.33484,-1.63223 1.62219,-2.96765 0.63859,-2.96765 -0.98364,0 -1.67787,-1.2963 -1.5428,-2.88067 0.13508,-1.5844 -0.60171,-3.18003 -1.63734,-3.54585 -1.2171,-0.42995 -1.75512,2.91458 -1.52142,9.45807 0.40444,11.32527 0.35049,11.00022 1.82522,11.00022 0.59035,0 0.63087,-1.14372 0.0899,-2.54164 z m -7.52957,-22.45249 c 1.34007,-0.90619 1.12003,-1.85282 -0.70723,-3.04259 -3.11296,-2.02691 -12.40392,-2.37778 -12.32217,-0.46533 0.0884,2.06974 4.59556,7.45438 6.2395,7.45438 0.81673,0 0.53008,-0.94715 -0.63702,-2.10477 -3.1144,-3.08908 -2.58929,-4.70392 1.20922,-3.71864 2.28604,0.59293 3.11214,2.05483 2.63291,4.65919 -0.41448,2.25255 -0.22319,2.72575 0.4706,1.16422 0.6429,-1.44703 2.04429,-3.22293 3.11419,-3.94646 z m 101.26728,-3.86925 c 0,-1.40462 -0.6761,-2.13934 -1.50246,-1.63278 -0.82636,0.50656 -1.04467,1.65577 -0.48509,2.5538 1.42994,2.29487 1.98755,2.03645 1.98755,-0.92102 z m -97.20491,-5.85075 c 1.25035,-0.7884 1.5234,-2.28768 0.66699,-3.66216 -1.1336,-1.81929 -2.28197,-1.88569 -5.26121,-0.3042 -2.09612,1.11268 -3.34398,2.77277 -2.77307,3.68903 1.2423,1.99373 4.4535,2.11461 7.36729,0.27733 z m 73.3912,-4.22405 c -1.65044,-1.63705 -2.59356,-1.63705 -4.24401,0 -1.65044,1.63701 -1.1789,2.10474 2.12201,2.10474 3.30093,0 3.77247,-0.46773 2.122,-2.10474 z m -55.48476,-9.58923 c -0.86039,-4.4003 -4.99261,-5.0045 -4.99261,-0.72999 0,2.15446 1.14181,3.6541 2.78218,3.6541 1.64675,0 2.54886,-1.19334 2.21043,-2.92411 z m -12.96828,-22.33819 c 2.86839,-2.63673 3.78507,-4.4791 2.44853,-4.92099 -1.17501,-0.38849 -2.20255,-3.54388 -2.28339,-7.01198 -0.0808,-3.46806 -0.7472,-5.9407 -1.48077,-5.49473 -0.73357,0.44599 -0.98907,4.30213 -0.56779,8.56919 0.44537,4.51097 -0.0383,8.25127 -1.15523,8.93604 -1.25255,0.76781 -1.57413,-0.1386 -0.92401,-2.60451 1.12196,-4.25557 -1.27243,-5.2235 -2.8479,-1.15127 -0.93219,2.40952 0.19441,7.89289 1.62175,7.89289 0.33213,0 2.6671,-1.89659 5.18881,-4.21464 z m 135.60346,-6.61371 c 3.03451,-3.00985 3.19019,-3.56373 0.73955,-2.63097 -1.70729,0.64983 -3.83483,1.18151 -4.72787,1.18151 -0.89304,0 -1.62372,1.18394 -1.62372,2.63095 0,3.54608 1.07361,3.32003 5.61204,-1.18149 z m 3.22968,2.05848 c 0,-0.96469 -0.79574,-1.75398 -1.76834,-1.75398 -0.97258,0 -1.76833,0.78929 -1.76833,1.75398 0,0.96467 0.79575,1.75397 1.76833,1.75397 0.9726,0 1.76834,-0.7893 1.76834,-1.75397 z m -132.21899,-3.94643 c -0.98702,-1.20586 -2.18579,-3.77104 -2.66391,-5.70043 -0.69956,-2.82294 -0.9094,-2.62311 -1.07447,1.02316 -0.21412,4.72991 0.98285,6.86972 3.84282,6.86972 1.01893,0 0.97745,-0.87069 -0.10447,-2.19245 z m -19.8586,-9.56932 c 0,-6.52395 -4.31851,-3.91905 -4.99957,3.01575 -0.51021,5.19469 -0.2484,5.62065 2.21042,3.5966 1.53403,-1.26279 2.78915,-4.23835 2.78915,-6.61235 z m 70.73378,-18.42904 c 0,-0.75937 -0.3328,-1.38069 -0.73954,-1.38069 -0.40677,0 -1.99827,-0.47912 -3.53669,-1.06464 -1.80676,-0.68769 -2.79715,-0.10517 -2.79715,1.64494 0,1.62839 1.41124,2.60417 3.53669,2.44538 1.94517,-0.14542 3.53669,-0.88556 3.53669,-1.64499 z m 63.40818,250.0077 c -4.57586,-1.1893 -1.96196,-7.58617 3.09985,-7.58617 3.3303,0 4.08034,0.80058 3.61056,3.85382 -0.63408,4.12121 -2.09269,4.93251 -6.71041,3.73235 z m -168.95306,-9.77865 c -2.9317,-4.52237 -5.86081,-10.53961 -5.86081,-12.03981 0,-3.01922 3.13697,-1.50503 4.04906,1.95448 0.69017,2.61778 2.42523,3.51476 6.83753,3.53479 3.25197,0.0156 7.10631,0.81907 8.56519,1.78732 2.2959,1.52375 2.19103,2.10967 -0.78006,4.35806 -4.18931,3.1703 -10.88119,3.38193 -12.81091,0.40516 z m 225.25206,-12.159 c 0.43861,-2.27583 2.20829,-5.99305 3.93261,-8.26043 l 3.13513,-4.12258 4.02705,5.60953 c 4.59078,6.39476 3.64248,8.08187 -5.47633,9.74278 -6.03243,1.09877 -6.36828,0.92126 -5.61846,-2.9693 z m -263.07785,-15.61493 -8.09232,-3.54243 -0.34941,-13.42389 c -0.19227,-7.38317 -1.21119,-13.9522 -2.26444,-14.59787 -1.36665,-0.83778 -1.35458,-1.51749 0.0422,-2.37369 2.89705,-1.7759 5.12685,0.18759 9.19472,8.09638 2.00769,3.90344 5.17934,7.49376 7.04811,7.97847 4.21762,1.09397 4.37596,3.23246 0.35269,4.76382 -2.60489,0.99146 -2.66878,1.39004 -0.44209,2.75747 1.4968,0.91921 2.60297,4.23309 2.60297,7.79803 0,3.4097 0,6.17397 0,6.14281 0,-0.0313 -3.64154,-1.65078 -8.09234,-3.5991 z m 245.93462,-9.39446 c 0,-1.50396 -0.99469,-2.53715 -2.21045,-2.296 -1.21572,0.24119 -2.21042,-0.72359 -2.21042,-2.14391 0,-1.69038 2.73922,-3.04624 7.9299,-3.92515 6.64867,-1.1258 8.48991,-0.78728 11.39597,2.09518 4.19529,4.16121 3.60156,4.92349 -4.52656,5.81194 -3.46097,0.37828 -7.21198,1.25131 -8.33557,1.94009 -1.21126,0.74254 -2.04287,0.13916 -2.04287,-1.48215 z M 308.49887,542.96762 c -0.0156,-2.17053 0.76868,-3.94644 1.74126,-3.94644 2.2156,0 2.2156,1.86139 0,5.26193 -1.38615,2.12751 -1.71938,1.87575 -1.74126,-1.31549 z m 266.99288,-3.23365 c 0,-1.35672 -0.9947,-2.53114 -2.21042,-2.60984 -1.21576,-0.0787 0.46834,-1.30232 3.74238,-2.71924 6.8672,-2.97187 7.52634,-2.72296 6.19195,2.33827 -1.12917,4.28293 -7.72391,6.8365 -7.72391,2.99081 z m -112.83739,-2.02826 c 0.75155,-3.87072 3.89658,-3.78649 4.65596,0.12473 0.34841,1.79439 -0.56573,2.94473 -2.34008,2.94473 -1.82131,0 -2.68865,-1.14954 -2.31588,-3.06944 z m -35.70351,0.0999 c 0,-1.96632 3.74041,-5.80036 5.65869,-5.80036 0.77807,0 1.41468,1.18393 1.41468,2.63094 0,1.44704 -0.33281,2.63096 -0.73955,2.63096 -0.40674,0 -1.99825,0.47911 -3.53667,1.06466 -1.53846,0.58554 -2.79715,0.34874 -2.79715,-0.5262 z m 43.39995,-2.17122 c -0.55958,-0.89804 -0.20864,-2.12855 0.77981,-2.73448 0.98844,-0.60593 1.79718,0.12882 1.79718,1.63278 0,3.08089 -1.06112,3.53453 -2.57699,1.1017 z m -8.03308,-5.06486 c 0,-2.11975 3.35491,-4.59119 4.58126,-3.37481 0.44509,0.44149 -0.40361,1.80109 -1.88599,3.02136 -1.68062,1.38344 -2.69527,1.51652 -2.69527,0.35345 z m -76.17546,-22.09862 4.01653,-4.24064 -4.15037,-0.78242 c -2.28271,-0.43034 -0.41748,-0.8899 4.14493,-1.02129 4.56238,-0.13136 8.78706,-1.02815 9.38815,-1.99284 1.34348,-2.1561 9.72589,-2.34504 9.72589,-0.21924 0,1.32999 -7.98115,4.0112 -13.26256,4.45544 -0.9726,0.0817 -3.21869,1.92464 -4.9913,4.09518 -1.77263,2.17054 -4.49754,3.94644 -6.05536,3.94644 -2.27115,0 -2.03652,-0.84032 1.18409,-4.24063 z m -58.2187,-10.83178 c 0,-1.95529 11.82391,-11.14018 14.39966,-11.18577 1.59798,-0.0283 3.36343,-1.23535 3.92329,-2.68237 0.55982,-1.44704 2.4354,-2.56865 4.16794,-2.49249 1.85258,0.0814 2.23962,0.50288 0.93968,1.02316 -1.21572,0.48655 -2.21042,2.39747 -2.21042,4.24644 0,1.84899 -1.15153,3.36181 -2.55896,3.36181 -1.4074,0 -6.18194,1.9107 -10.61007,4.24603 -4.42811,2.33529 -8.05112,3.90275 -8.05112,3.48319 z m -14.05951,-8.50197 c -1.16279,-1.38969 -3.38014,-2.04483 -4.92746,-1.45591 -2.05821,0.78341 -2.43128,0.40237 -1.38996,-1.41973 1.02752,-1.79792 0.59881,-1.72399 -1.54163,0.26594 -1.83372,1.70473 -4.96488,2.4653 -8.20664,1.99338 -6.53459,-0.9513 -6.64761,-2.63517 -0.37873,-5.6432 3.89782,-1.87032 4.25007,-2.47365 1.77486,-3.03989 -2.45963,-0.56265 -2.71687,-1.39442 -1.26404,-4.08701 1.30628,-2.42095 1.25073,-3.38058 -0.19569,-3.38058 -1.14778,0 -1.53794,-1.24537 -0.90377,-2.8846 0.62282,-1.60983 -0.16473,-4.28821 -1.78182,-6.06066 -2.16059,-2.36802 -2.59253,-4.86932 -1.69781,-9.83169 0.66,-3.6606 1.19314,-9.39859 1.18479,-12.75108 -0.0156,-6.02193 2.00358,-8.73418 6.53934,-8.78648 1.53057,-0.0176 1.94334,1.18023 1.20344,3.49254 -0.83976,2.62434 -0.0829,3.9398 2.97543,5.17235 l 4.10159,1.65296 -3.97875,1.17113 c -4.47582,1.3174 -5.39287,4.2699 -1.32627,4.2699 1.45888,0 2.65251,0.7893 2.65251,1.75399 0,0.96468 -1.65782,1.75397 -3.68404,1.75397 -2.17275,0 -3.37298,0.89941 -2.92578,2.19247 0.44435,1.28481 3.82135,2.19246 8.15718,2.19246 8.07286,0 12.05918,3.43471 8.67726,7.47655 -2.44986,2.92792 2.60364,10.22643 10.6111,15.3251 8.01656,5.10446 8.1265,7.17183 0.34223,6.43552 -5.53911,-0.52394 -6.88711,-0.002 -7.86165,3.04346 -1.37875,4.30878 -3.22372,4.65321 -6.15569,1.14911 z m 129.06411,-23.66755 c -2.78938,-5.16962 -2.23941,-5.7238 2.5751,-2.59482 2.42314,1.57476 3.96767,3.5662 3.43234,4.42533 -1.58606,2.54548 -4.05167,1.7942 -6.00744,-1.83051 z m 84.8183,0.97849 c 0,-1.62683 1.22796,-3.42524 2.72878,-3.99648 4.29094,-1.63319 4.70648,0.28017 0.81874,3.76996 -3.23731,2.90591 -3.54752,2.92572 -3.54752,0.22652 z m 92.46717,-18.637 c -0.25451,-3.60839 0.43908,-5.25844 2.21042,-5.25844 1.41975,0 2.58133,-0.7893 2.58133,-1.75397 0,-2.68884 3.45335,-2.0872 6.74181,1.17452 2.546,2.52531 2.58948,3.04857 0.31578,3.80028 -1.45021,0.47947 -2.82033,0.54289 -3.04475,0.14094 -0.22443,-0.40197 -1.66213,1.04505 -3.19489,3.21559 -3.74261,5.29989 -5.16646,4.96514 -5.6097,-1.31897 z M 283.71498,427.27615 c 0,-2.21538 6.86594,-11.03219 8.59113,-11.03219 0.69359,0 1.26107,1.57856 1.26107,3.50794 0,1.92936 -0.76152,3.50794 -1.69225,3.50794 -0.93075,0 -3.1475,1.30625 -4.92612,2.90281 -1.77862,1.59651 -3.23383,2.09764 -3.23383,1.1135 z m 70.21839,-16.30546 c -1.18711,-4.5026 0.41174,-15.50386 2.43333,-16.74313 3.09443,-1.89692 5.12811,5.78055 3.11455,11.75797 -2.67872,7.95214 -4.36593,9.46821 -5.54788,4.98516 z m 134.23412,-2.02277 c -1.28252,-6.36048 -0.21274,-8.31826 2.87297,-5.25766 1.67255,1.65898 2.78664,1.26904 5.11259,-1.78946 2.8574,-3.75737 2.89936,-3.58722 1.07067,4.33925 -2.30848,10.00611 -7.28461,11.49402 -9.05623,2.70787 z m -189.07622,-3.12758 c 0.52321,-1.98448 0.11966,-3.60819 -0.89698,-3.60819 -3.17557,0 -7.30337,-5.24012 -6.25744,-7.94361 1.08981,-2.81696 8.64965,-3.54829 10.24313,-0.9909 0.54469,0.87411 2.4912,1.20001 4.32565,0.72418 1.83445,-0.47581 3.75002,-0.19963 4.25681,0.61373 0.92634,1.48663 -4.32746,8.2511 -9.72422,12.52027 -2.52403,1.99667 -2.77542,1.82685 -1.94695,-1.31548 z m 170.68721,-10.62408 c 0.0831,-2.90242 1.12249,-5.2619 2.31772,-5.2619 2.8086,0 6.53454,-4.48848 6.94222,-8.36298 0.41717,-3.96504 4.39869,-13.36928 5.2871,-12.48807 0.37881,0.3757 -0.16201,4.62895 -1.20189,9.45157 -1.03982,4.8227 -1.88409,10.93905 -1.87616,13.59193 0.009,3.47826 -0.87198,4.82344 -3.16406,4.82344 -1.74822,0 -3.67035,0.78929 -4.27144,1.75397 -2.14408,3.44097 -4.18187,1.66869 -4.03349,-3.50796 z m 19.7594,-4.52838 c 0.59035,-1.52591 1.07335,-5.19849 1.07335,-8.16124 l 0,-5.38685 3.45893,3.95577 c 3.20084,3.6606 3.25163,4.26954 0.68079,8.16124 -3.10462,4.69973 -6.87845,5.73572 -5.21307,1.43108 z m -13.0734,-33.28552 c 0,-1.50398 0.79576,-2.24667 1.76834,-1.65049 0.9726,0.59622 1.76835,1.82675 1.76835,2.7345 0,0.90774 -0.79575,1.65046 -1.76835,1.65046 -0.97258,0 -1.76834,-1.23053 -1.76834,-2.73447 z M 365.3208,336.7513 c -1.83063,-2.18787 -1.65888,-2.98841 0.96622,-4.50312 2.97935,-1.71915 2.9859,-1.84579 0.098,-1.89556 -1.70203,-0.0293 -3.09459,0.73595 -3.09459,1.70064 0,2.28595 -4.77269,2.27336 -6.19942,-0.0156 -0.6067,-0.97369 1.3307,-3.14424 4.30532,-4.82343 6.64946,-3.75367 6.71118,-4.50503 0.56784,-6.91285 -4.82091,-1.8895 -4.80399,-1.90759 1.95754,-2.09255 5.29275,-0.14484 6.59248,-0.77593 5.8026,-2.81755 -0.55982,-1.44704 -0.3445,-2.63097 0.47847,-2.63097 0.82296,0 2.48694,1.18393 3.69772,2.63097 1.21074,1.44701 3.29758,2.63094 4.63737,2.63094 1.33979,0 2.43599,1.62516 2.43599,3.61147 0,1.98629 0.79576,3.12367 1.76835,2.52744 0.97258,-0.59622 1.76834,0.0808 1.76834,1.50431 0,1.42356 -0.99469,2.98862 -2.21043,3.4779 -1.74534,0.70246 -1.72771,1.22711 0.0837,2.49347 1.85496,1.29681 1.80052,2.01016 -0.2843,3.72636 -4.34148,3.57381 -14.26335,4.39513 -16.77876,1.38889 z m 176.57242,-3.70456 c 0,-1.43185 -2.07333,-2.75343 -4.8154,-3.06946 l -4.81536,-0.55498 5.03782,-3.25447 c 3.56752,-2.30462 5.40124,-2.67122 6.283,-1.25606 0.68486,1.09909 2.57415,1.49256 4.19842,0.87432 4.25688,-1.62022 3.70527,2.5778 -0.85403,6.49992 -4.5753,3.93589 -5.03445,4.00527 -5.03445,0.76073 z m -106.16661,-8.53647 c -2.39519,-0.96663 -5.74748,-1.58849 -7.44951,-1.38196 -1.70203,0.20659 -3.09461,-0.30546 -3.09461,-1.13785 0,-2.78977 4.20628,-5.72297 8.20686,-5.72297 2.17955,0 4.44722,-0.7774 5.03927,-1.72753 0.66731,-1.07098 -0.96723,-1.32217 -4.30045,-0.66094 l -5.3769,1.06662 2.0089,-5.91646 c 2.74579,-8.08686 5.10311,-10.69222 8.80546,-9.73189 1.72477,0.44736 4.54515,-0.20866 6.26754,-1.45787 3.51763,-2.55125 14.81621,-1.48282 16.89957,1.59806 2.15801,3.19133 1.51631,6.30617 -1.29918,6.30617 -1.4589,0 -2.65253,1.18394 -2.65253,2.63098 0,1.44702 0.59681,2.63713 1.32626,2.64462 2.36443,0.0244 5.31466,8.36623 3.81186,10.77808 -1.15809,1.85858 -1.90116,1.89035 -3.6498,0.15595 -2.93218,-2.90835 -9.40532,-2.76544 -11.93979,0.26359 -2.91236,3.48067 -7.56375,4.32712 -12.60295,2.29342 z m 46.42372,-1.01588 c 0.77842,-4.00919 6.14444,-4.50573 8.16261,-0.75531 1.46149,2.71598 0.95534,3.20288 -3.49898,3.36611 -3.87666,0.1421 -5.0686,-0.52517 -4.66363,-2.6108 z m -3.00872,-11.83797 c -1.58428,-1.57142 -2.43688,-4.00383 -1.89466,-5.40538 0.54224,-1.40153 0.98587,-4.43666 0.98587,-6.7447 0,-2.88869 1.65319,-5.04439 5.30503,-6.91746 5.74153,-2.94495 6.30136,-2.49289 3.45213,2.78766 -1.40694,2.60754 -1.19414,4.08747 0.88417,6.1489 3.11639,3.09103 3.58372,5.97221 0.96874,5.97221 -0.9726,0 -1.76835,1.57856 -1.76835,3.50794 0,4.23953 -3.98518,4.56648 -7.93293,0.65083 z m -64.56916,-22.35133 c 0,-1.45161 -2.80718,-2.85201 -7.07339,-3.52866 -7.39796,-1.17338 -10.28033,-6.34235 -3.53669,-6.34235 2.35779,0 3.53669,-1.16931 3.53669,-3.50794 0,-3.8233 4.55032,-4.86352 5.75427,-1.3155 0.58,1.70927 1.39194,1.66192 3.68405,-0.21476 2.5726,-2.10636 2.94008,-1.96246 2.94008,1.15127 0,2.67842 0.86266,3.33476 3.48802,2.6538 3.41214,-0.88507 3.42176,-0.74832 0.44209,6.28525 -2.94915,6.96151 -9.23512,10.24154 -9.23512,4.81889 z"
       style="fill:#ffffff;fill-opacity:1;stroke:#000000;stroke-width:0;stroke-miterlimit:4;stroke-opacity:1;stroke-dasharray:none"
       inkscape:connector-curvature="0" />
  </g>
  <g
     inkscape:groupmode="layer"
     id="layer3"
     inkscape:label="Légende"
     transform="translate(-202.71498,-189.07581)"
     style="display:inline" />
</svg>
