<?xml version="1.0" encoding="UTF-8" standalone="no"?>
<svg
    xmlns:dc="http://purl.org/dc/elements/1.1/"
    xmlns:cc="http://creativecommons.org/ns#"
    xmlns:rdf="http://www.w3.org/1999/02/22-rdf-syntax-ns#"
    xmlns:svg="http://www.w3.org/2000/svg"
    xmlns="http://www.w3.org/2000/svg"
    version="1.0"
    id="svg2"
    height="100"
    width="100">
    <defs
        id="defs4"/>
    <metadata
        id="metadata7">
        <rdf:RDF>
            <cc:Work
                rdf:about="">
                <dc:format>image/svg+xml</dc:format>
                <dc:type
                    rdf:resource="http://purl.org/dc/dcmitype/StillImage"/>
                <dc:title>Sync icon</dc:title>
            </cc:Work>
        </rdf:RDF>
    </metadata>
    <path
        style="fill:#000000;fill-opacity:1;stroke:#000000;stroke-width:0;stroke-miterlimit:4;stroke-dasharray:none;stroke-opacity:1"
        d="m 44.758595,74.732728 c -0.143002,-0.143772 -0.639987,-0.339092 -1.104422,-0.434036 -0.611962,-0.125111 -0.866644,-0.327367 -0.925148,-0.734707 -0.09991,-0.69564 -0.447236,-0.723284 -0.798412,-0.06355 -0.305583,0.574086 -1.016332,0.428136 -1.01396,-0.208211 8.33e-4,-0.229517 0.171376,-0.744686 0.37893,-1.144815 0.207556,-0.40013 0.377376,-0.885884 0.377376,-1.079461 0,-0.423842 0.406192,-0.464577 0.6516,-0.06534 0.120255,0.19563 0.249882,0.15419 0.408364,-0.130535 0.160658,-0.288642 0.110976,-0.53901 -0.161268,-0.812733 -0.216401,-0.217575 -0.393455,-0.55367 -0.393455,-0.746885 0,-0.223426 -0.229891,-0.120166 -0.631553,0.283675 -0.34735,0.349239 -0.63155,0.801224 -0.63155,1.00442 0,0.20319 -0.227358,0.369441 -0.505241,0.369441 -0.277883,0 -0.505242,-0.146043 -0.505242,-0.32454 0,-0.366044 -0.689181,-1.021096 -1.337442,-1.271205 -0.23999,-0.09259 -0.430902,-0.435498 -0.430902,-0.773974 0,-0.513928 -0.09909,-0.588678 -0.642032,-0.484328 -0.353122,0.06787 -0.623858,0.02343 -0.601636,-0.09872 0.02223,-0.122165 0.02693,-0.545751 0.01048,-0.941306 l -0.02992,-0.719189 -0.947328,0.586415 -0.947326,0.586419 0.442085,-0.68376 c 0.243147,-0.37607 0.442086,-0.734887 0.442086,-0.797369 0,-0.06248 -0.464134,-0.192445 -1.031407,-0.288802 -0.90047,-0.152964 -1.013861,-0.245494 -0.893195,-0.728872 0.09454,-0.378745 -0.01857,-0.6521 -0.358008,-0.865239 -0.272915,-0.171367 -0.496216,-0.484496 -0.496216,-0.695851 0,-0.211355 -0.284196,-0.514472 -0.631549,-0.673595 -0.869751,-0.398434 -0.793859,-0.735697 0.124015,-0.551126 0.753728,0.151564 0.754882,0.149958 0.474605,-0.658412 -0.15453,-0.445686 -0.479237,-0.93484 -0.721577,-1.087003 -0.52429,-0.329199 -0.37657,-1.313989 0.16572,-1.104765 0.195407,0.07539 0.41999,-0.03243 0.499068,-0.239625 0.257236,-0.67399 0.78805,-0.432102 0.649612,0.296017 -0.08666,0.455808 -0.03681,0.61612 0.154611,0.497177 0.155383,-0.09655 0.476343,0.05204 0.713237,0.330225 0.236903,0.278179 0.524127,0.447742 0.638284,0.376806 0.114159,-0.07093 0.207559,0.206663 0.207559,0.616888 0,0.410221 0.170518,0.888147 0.378932,1.062052 0.316584,0.264166 0.378932,0.227491 0.378932,-0.222893 0,-0.296494 0.113678,-0.539079 0.252618,-0.539079 0.138943,0 0.32795,-0.02858 0.420018,-0.0635 0.09207,-0.03493 0.18098,0.248583 0.197594,0.630016 0.02937,0.674523 0.723384,1.441011 1.319536,1.457332 0.594002,0.01625 1.094396,-0.310714 1.098164,-0.717571 0.0022,-0.229522 0.106108,-0.579719 0.231064,-0.778213 0.193409,-0.307238 0.324312,-0.296923 0.880305,0.06935 0.820766,0.540701 0.826827,0.872696 0.02156,1.180518 -0.784934,0.300049 -0.881402,1.26995 -0.126313,1.26995 0.277884,0 0.505243,0.114296 0.505243,0.253994 0,0.139692 0.103036,0.253991 0.22897,0.253991 0.125936,0 0.17287,-0.215692 0.104303,-0.479316 -0.06858,-0.263623 -0.01134,-0.549735 0.127163,-0.635803 0.405977,-0.252268 1.096845,0.131897 0.946343,0.526225 -0.07589,0.198835 0.04563,0.643268 0.270052,0.987627 0.33407,0.512627 0.47554,0.569777 0.780496,0.315314 0.204858,-0.170937 0.522066,-0.332871 0.70491,-0.359854 0.386786,-0.05707 0.696884,0.945282 0.473506,1.530552 -0.08421,0.220647 -0.02727,0.401171 0.126538,0.401171 0.153808,0 0.279648,-0.409117 0.279648,-0.909149 0,-0.868876 0.03212,-0.902056 0.725033,-0.749042 0.605094,0.133625 0.756667,0.06343 0.91624,-0.424303 l 0.19121,-0.584409 0.114725,0.593847 c 0.09655,0.499755 0.221545,0.567973 0.788946,0.430581 0.775838,-0.187869 1.305774,-0.78403 1.305774,-1.468947 0,-0.260936 0.11368,-0.403789 0.25262,-0.317452 0.138944,0.08634 0.252621,0.386999 0.252621,0.668141 0,0.408112 0.14006,0.494704 0.694708,0.429496 0.382088,-0.04492 0.82751,-0.252939 0.989828,-0.462263 0.162314,-0.209321 0.378432,-0.29682 0.48026,-0.19444 0.101831,0.102381 0.322525,-0.0028 0.49044,-0.23364 0.280044,-0.385059 0.382382,-0.371886 1.237105,0.159232 0.904028,0.561747 0.946967,0.565214 1.440291,0.116339 0.436095,-0.396796 0.541703,-0.409864 0.741817,-0.09178 0.128328,0.203989 0.235072,0.456611 0.237196,0.561382 0.0075,0.367789 0.835772,0.185774 1.155551,-0.253926 0.28172,-0.387358 0.429567,-0.404057 1.151604,-0.130038 0.6076,0.230586 0.87514,0.238329 1.003783,0.02906 0.0978,-0.159111 0.442364,-0.217955 0.778924,-0.133023 0.754579,0.190414 1.371303,-0.617852 0.991037,-1.298842 -0.218073,-0.390533 -0.259348,-0.39369 -0.398587,-0.03047 -0.117903,0.307557 -0.410526,0.379519 -1.214597,0.298673 -1.137797,-0.114394 -1.616914,-0.322864 -0.742031,-0.322864 0.292837,0 0.602689,-0.114298 0.688562,-0.253992 0.08587,-0.139694 0.03574,-0.253989 -0.111401,-0.253989 -0.147141,0 -0.267529,-0.242586 -0.267529,-0.539081 0,-0.465483 -0.05522,-0.49301 -0.404417,-0.201627 -0.222429,0.185601 -0.558499,0.360193 -0.746824,0.387982 -0.435411,0.06425 -0.963073,-0.559885 -0.756901,-0.895288 0.08597,-0.139863 -0.216857,-0.449031 -0.672958,-0.68704 -1.051288,-0.548599 -0.53993,-0.755426 0.641075,-0.259294 0.865995,0.363799 0.889373,0.357908 1.0444,-0.263123 0.124433,-0.498462 0.232033,-0.573957 0.499704,-0.350601 0.25398,0.211925 0.605001,0.193239 1.374023,-0.07314 0.876319,-0.303554 1.076633,-0.304803 1.321427,-0.0083 0.321514,0.389498 1.63478,0.476114 1.85235,0.12217 0.202892,-0.330068 -0.65326,-0.597913 -0.95179,-0.297765 -0.374884,0.376918 -0.96849,-0.514902 -0.622064,-0.934583 0.144468,-0.17501 0.422832,-0.318205 0.618592,-0.318205 0.19576,0 0.42136,-0.171445 0.501334,-0.380987 0.176428,-0.462257 0.758623,-0.501811 0.934533,-0.0635 0.07612,0.189663 0.135447,0.138533 0.14736,-0.126997 0.02738,-0.61044 0.688288,-0.562104 0.850668,0.06221 0.136107,0.523288 0.840289,0.945781 1.115378,0.669195 0.08579,-0.08624 -0.05042,-0.386109 -0.302665,-0.666353 -0.252251,-0.280248 -0.362454,-0.50954 -0.244893,-0.50954 0.11756,0 0.0042,-0.154102 -0.252061,-0.342455 -0.498502,-0.366492 -0.342544,-0.927496 0.257843,-0.927496 0.200208,0 0.364018,-0.09524 0.364018,-0.211659 0,-0.417166 -0.314658,-0.514027 -0.91916,-0.282948 -0.828924,0.316866 -1.137643,-0.397383 -0.397153,-0.918856 0.285143,-0.200804 0.593033,-0.706537 0.684193,-1.123846 0.09117,-0.417311 0.270683,-0.823948 0.398937,-0.903643 0.528275,-0.328262 0.197637,-0.848152 -0.587832,-0.924295 -0.78508,-0.07611 -0.821019,-0.126843 -0.821019,-1.159137 0,-0.694361 -0.112671,-1.079518 -0.315774,-1.07946 -0.371303,9.9e-5 -0.396615,-0.240166 -0.07854,-0.745553 0.191767,-0.304703 0.29597,-0.309193 0.633787,-0.0273 0.22236,0.185538 0.483511,0.2577 0.580337,0.160349 0.09682,-0.09735 0.01783,-0.275325 -0.175597,-0.395501 -0.294825,-0.183204 -0.281742,-0.325763 0.08097,-0.882335 0.237939,-0.365103 0.361262,-0.779901 0.274054,-0.92177 -0.0872,-0.141868 -0.02958,-0.414206 0.12808,-0.605189 0.209934,-0.254329 0.21135,-0.394028 0.0052,-0.522071 -0.194301,-0.120736 -0.150952,-0.31969 0.140119,-0.643058 0.400909,-0.445403 0.386316,-0.464349 -0.299321,-0.388578 -0.396432,0.04382 -0.77762,-0.0045 -0.84709,-0.107292 C 63.67674,43.96676 62.64037,43.74315 62.64037,44.029808 c 0,0.149106 -0.115487,0.271109 -0.256633,0.271109 -0.141148,0 -0.232564,-0.317587 -0.203148,-0.705743 0.07403,-0.976867 -0.23447,-1.441463 -0.699502,-1.05343 -0.196041,0.163587 -0.356442,0.47937 -0.356442,0.70174 0,0.359559 -0.04737,0.35669 -0.4279,-0.02593 -0.396584,-0.398734 -0.461347,-0.399786 -0.884911,-0.01437 -0.435272,0.396049 -0.444192,0.378849 -0.187488,-0.361519 0.148238,-0.427544 0.489206,-0.977243 0.757712,-1.221553 0.391188,-0.355942 0.427583,-0.517618 0.183164,-0.813718 -0.167763,-0.20324 -0.423141,-0.605472 -0.567506,-0.893853 -0.336636,-0.672462 -0.894034,-0.862277 -0.894034,-0.304453 0,0.270535 -0.135371,0.377097 -0.366,0.28812 -0.218021,-0.08412 -0.426184,0.04944 -0.514856,0.330348 -0.08187,0.259358 -0.309262,0.533441 -0.50531,0.60908 -0.249846,0.09639 -0.310709,0.0084 -0.20351,-0.294027 0.08411,-0.237349 -0.100446,-0.117231 -0.410134,0.26693 -0.649258,0.805395 -1.456533,0.988725 -1.05815,0.240305 0.140542,-0.264031 0.151374,-0.608668 0.02558,-0.813342 -0.285578,-0.464588 -0.0048,-0.919776 0.289958,-0.470043 0.181762,0.277345 0.30029,0.246418 0.607274,-0.158465 0.497034,-0.655532 0.3766,-1.213377 -0.329352,-1.525586 -0.31181,-0.137896 -0.56692,-0.433035 -0.56692,-0.655858 0,-0.240956 -0.354798,-0.51462 -0.87549,-0.675291 l -0.875494,-0.270154 0.03076,0.822608 c 0.03728,0.996862 -0.229645,1.492182 -0.705227,1.308692 -0.2039,-0.07867 -0.353378,0.02146 -0.353378,0.236674 0,0.205161 -0.11368,0.373015 -0.25262,0.373015 -0.375508,0 -0.305661,-0.826797 0.121666,-1.440201 0.383844,-0.550986 0.314524,-0.696036 -0.579041,-1.211645 -0.444621,-0.256555 -0.255989,2.619538 0.189975,2.896656 0.233399,0.14503 0.217262,0.228166 -0.06546,0.337247 -0.240699,0.09287 -0.434053,-0.05383 -0.53932,-0.409137 -0.162044,-0.546966 -0.166751,-0.547431 -0.375564,-0.0371 -0.116306,0.284236 -0.371223,0.650105 -0.566482,0.813036 -0.295734,0.246766 -0.338024,0.149859 -0.253244,-0.580296 0.05597,-0.482099 8.34e-4,-0.876537 -0.122334,-0.876537 -0.326154,0 -1.033342,0.891317 -1.13714,1.433217 -0.04908,0.256233 -0.28687,0.504146 -0.528422,0.550917 -0.346006,0.06699 -0.439222,-0.09404 -0.439364,-0.759057 -1.42e-4,-0.738365 -0.08583,-0.849086 -0.68401,-0.884003 -0.996682,-0.05817 -1.304168,0.51019 -0.99971,1.847881 0.26337,1.157177 -0.04483,2.382877 -0.59918,2.382877 -0.15012,0 -0.191833,-0.131957 -0.09269,-0.293233 0.111678,-0.181679 0.0693,-0.224289 -0.1114,-0.112004 -0.414449,0.257529 -0.361263,0.659231 0.08728,0.659231 0.421465,0 0.488709,0.448382 0.1483,0.988886 -0.134743,0.21394 -0.442135,0.296265 -0.777248,0.208156 -0.506444,-0.133154 -0.520988,-0.108686 -0.168293,0.283153 0.240127,0.266773 0.357486,0.79101 0.310463,1.38684 -0.100116,1.268617 -0.279629,1.393914 -0.614272,0.428758 -0.159078,-0.458813 -0.389871,-0.722792 -0.546716,-0.625334 -0.1917,0.119121 -0.187454,0.270388 0.01447,0.514996 0.219612,0.266049 0.164948,0.476849 -0.235802,0.909342 -0.384103,0.414517 -0.450528,0.649209 -0.251868,0.889877 0.1484,0.179782 0.196485,0.446177 0.10685,0.591992 -0.08963,0.145813 0.01426,0.265117 0.230875,0.265117 0.484745,0 0.489845,0.434631 0.01492,1.269954 -0.474936,0.835325 -0.469837,1.269954 0.01493,1.269954 0.216613,0 0.327663,-0.107655 0.246783,-0.239232 -0.127535,-0.207472 1.174881,-1.792695 1.472875,-1.792695 0.06026,0 0.109562,0.400034 0.109562,0.888967 0,0.732555 -0.09295,0.888968 -0.528264,0.888968 -0.517982,0 -0.518724,0.007 -0.03819,0.36029 0.471443,0.346596 0.46368,0.366942 -0.204338,0.53551 -0.75611,0.190804 -0.813632,0.306683 -0.437914,0.882134 0.221116,0.338653 0.27637,0.338653 0.497266,0 0.136685,-0.20954 0.292676,-0.495281 0.346652,-0.634975 0.05398,-0.139697 0.487668,0.117604 0.963768,0.571777 0.673739,0.642714 0.932897,0.758138 1.16907,0.520682 0.236179,-0.237459 0.303444,-0.192479 0.303444,0.202893 0,0.279391 -0.126467,0.635133 -0.281041,0.790546 -0.537318,0.540233 -0.134587,0.847854 0.60463,0.461843 0.38639,-0.201768 0.869527,-0.302416 1.07364,-0.223666 0.204114,0.07875 0.371116,0.02796 0.371116,-0.112894 0,-0.384064 1.825409,-1.424395 2.36466,-1.347655 0.30085,0.04282 0.425863,-0.05483 0.347354,-0.271329 -0.129436,-0.356905 -0.256625,-0.364035 -1.069982,-0.05997 -0.497062,0.185824 -0.49752,0.18004 -0.02829,-0.3574 0.412492,-0.472454 0.429565,-0.604372 0.126312,-0.976082 -0.31481,-0.38588 -0.290007,-0.414076 0.242743,-0.275967 0.494889,0.128303 0.572197,0.07238 0.465737,-0.336938 -0.158262,-0.608477 -0.13398,-0.607922 0.578424,0.01328 0.504544,0.439958 0.533556,0.559059 0.22812,0.936521 -0.309192,0.382092 -0.296052,0.412126 0.112808,0.257904 0.25451,-0.096 0.6204,-0.174549 0.813085,-0.174549 0.207631,0 0.291109,-0.1552 0.204934,-0.380985 -0.09208,-0.241253 0.0035,-0.380989 0.26055,-0.380989 0.442054,0 0.548284,-0.389562 0.17028,-0.624448 -0.129624,-0.08055 -0.228043,-0.630195 -0.21871,-1.221445 0.03392,-2.148655 0.02052,-2.182094 -0.871871,-2.178995 -1.284602,0.0045 -2.477808,-0.317451 -2.292721,-0.618555 0.103011,-0.167579 0.007,-0.207666 -0.255197,-0.10652 -0.265244,0.102339 -0.420373,0.03457 -0.420373,-0.18365 0,-0.315024 -0.71964,-0.777271 -0.910824,-0.58505 -0.04436,0.04459 -0.252519,0.475895 -0.46258,0.958443 -0.359838,0.826599 -0.39143,0.843883 -0.546063,0.298756 -0.120037,-0.423161 -0.291451,-0.537973 -0.638053,-0.427369 -0.875124,0.279259 -0.484698,-0.335935 0.724082,-1.140943 1.02867,-0.685056 1.341124,-0.773817 2.210431,-0.627938 0.556832,0.09344 1.314448,0.384746 1.683594,0.647344 0.662072,0.470987 0.669376,0.470569 0.538931,-0.03097 -0.203375,-0.781931 0.37059,-0.602461 0.810857,0.253544 0.24323,0.4729 0.605083,0.77495 0.953817,0.796186 0.309049,0.01882 0.846107,0.04739 1.193461,0.0635 0.34735,0.01611 0.660823,0.08643 0.696601,0.156279 0.150895,0.294588 -0.581874,1.777934 -0.878296,1.777934 -0.17795,0 -0.323546,0.155042 -0.323546,0.344535 0,0.219155 0.274461,0.33469 0.754214,0.317487 0.575001,-0.02061 0.723386,-0.125178 0.624466,-0.440043 -0.08618,-0.274324 0.057,-0.462097 0.426418,-0.559228 0.757674,-0.199211 1.025384,0.01962 0.72179,0.589958 -0.139318,0.261728 -0.253303,0.708386 -0.253303,0.992574 0,0.354948 -0.118629,0.470941 -0.378931,0.370512 -0.217283,-0.08383 -0.391108,8.33e-4 -0.407473,0.198465 -0.135451,1.635639 -0.123793,1.995599 0.06462,1.995599 0.119098,0 0.216544,0.297965 0.216544,0.662155 0,0.464672 -0.10597,0.621265 -0.355322,0.525057 -0.226077,-0.08722 -0.468988,0.138824 -0.667822,0.621447 -0.210355,0.510603 -0.543074,0.804901 -1.01794,0.900391 -1.323849,0.266202 -1.174122,1.260224 0.281116,1.866271 1.021249,0.425309 0.945528,0.837071 -0.130698,0.710748 -0.484103,-0.05683 -0.917817,0.01021 -0.963813,0.148925 -0.04599,0.138729 -0.487504,0.0012 -0.981131,-0.305461 -1.050573,-0.652811 -1.216804,-0.680667 -1.216804,-0.203888 0,0.194595 -0.170519,0.419601 -0.378929,0.50001 -0.20841,0.08041 -0.37893,0.02327 -0.37893,-0.126994 0,-0.15026 -0.174822,-0.205743 -0.388494,-0.123307 -0.219406,0.08465 -0.449988,-0.01123 -0.529778,-0.22029 -0.123422,-0.323376 -0.188366,-0.322836 -0.513724,0.0042 -0.515769,0.518566 -1.026686,0.467914 -1.346831,-0.133524 -0.311069,-0.58439 -0.757862,-0.675279 -0.757862,-0.154167 0,0.194596 -0.179816,0.423187 -0.399591,0.50798 -0.578855,0.223331 -0.610891,0.205196 -0.610891,-0.345841 0,-0.354112 -0.118008,-0.454479 -0.404428,-0.343973 -0.222432,0.08582 -0.50489,-0.0035 -0.62768,-0.198466 -0.156052,-0.247787 -0.224422,-0.106012 -0.227126,0.470971 -0.0022,0.454008 -0.117548,0.82547 -0.256488,0.82547 -0.138942,0 -0.252622,-0.227875 -0.252622,-0.50639 0,-0.668767 -0.924163,-0.545181 -1.527793,0.204315 l -0.437671,0.543428 -0.109442,-0.749714 c -0.06019,-0.412345 -0.0075,-0.852194 0.117056,-0.977444 0.133584,-0.134308 -0.01589,-0.28889 -0.364377,-0.376833 -0.352493,-0.08895 -0.70781,-0.46058 -0.880721,-0.921166 -0.325611,-0.86731 -1.180215,-1.058992 -1.460491,-0.327582 -0.159532,0.416312 -0.187124,0.414394 -0.435346,-0.03024 -0.196933,-0.352758 -0.177902,-0.528869 0.07406,-0.685433 0.255049,-0.158485 0.189022,-0.266513 -0.266421,-0.435907 -0.378946,-0.140944 -0.498299,-0.291823 -0.318986,-0.403246 0.20162,-0.125284 0.139839,-0.419922 -0.208483,-0.994293 -0.717616,-1.183319 -0.663888,-1.619661 0.134654,-1.093601 0.751713,0.49521 0.848605,0.07824 0.126312,-0.543557 -0.732172,-0.630304 -0.684482,-1.239054 0.05621,-0.71744 0.308796,0.217462 0.706678,0.395387 0.884174,0.395387 0.593612,0 0.331564,-0.4232 -0.561452,-0.906729 -0.486294,-0.263306 -0.884171,-0.558881 -0.884171,-0.656832 0,-0.09795 -0.177225,-0.356272 -0.393825,-0.574049 -0.216604,-0.217779 -0.431002,-0.7117 -0.476436,-1.097605 -0.04544,-0.385901 -0.09558,-0.78736 -0.111419,-0.892135 -0.01584,-0.104772 -0.15574,-0.190493 -0.31089,-0.190493 -0.160498,0 -0.223393,0.225643 -0.145915,0.523519 0.204325,0.785589 -0.559886,0.956912 -1.127072,0.252671 -0.532973,-0.661766 -0.673384,-1.594388 -0.162747,-1.080978 0.54134,0.544277 0.984347,0.363928 0.811073,-0.330188 -0.11799,-0.472668 -0.05846,-0.634977 0.232903,-0.634977 0.215274,0 0.461663,0.114297 0.547533,0.253992 0.277984,0.452227 0.670272,0.268803 0.510124,-0.238523 -0.107622,-0.340933 0.0038,-0.578193 0.361906,-0.770908 0.532874,-0.28673 0.675644,-1.140079 0.292472,-1.748084 -0.151393,-0.240227 -0.269512,-0.25946 -0.389973,-0.0635 -0.263445,0.42858 -0.574915,0.336377 -0.717661,-0.212445 -0.07413,-0.285019 0.05852,-0.663609 0.313981,-0.896044 0.406931,-0.370265 0.476385,-0.356167 0.867385,0.176063 l 0.425035,0.578557 -0.154951,-0.761975 c -0.441154,-2.169373 -0.437232,-2.403656 0.04322,-2.582304 0.258184,-0.09599 0.542484,-0.284068 0.631776,-0.417936 0.08929,-0.133868 0.443312,-0.172495 0.786712,-0.08584 0.509038,0.12845 0.607151,0.28727 0.531193,0.859845 l -0.09317,0.702291 0.277953,-0.707876 c 0.299725,-0.76333 0.599253,-0.763375 2.090139,-2.9e-4 0.468706,0.239898 0.810278,0.283413 0.969336,0.123488 0.159064,-0.159924 0.148834,-0.307072 -0.02902,-0.417589 -0.500545,-0.311036 -0.294858,-0.902646 0.313822,-0.902646 0.44778,0 0.583658,-0.13662 0.568398,-0.571479 -0.01158,-0.329426 0.11369,-0.544583 0.295718,-0.507978 0.419691,0.08439 0.398184,-0.07136 -0.07565,-0.547757 -0.281912,-0.283442 -0.344723,-0.643807 -0.224506,-1.288094 0.195927,-1.050054 0.685047,-1.218627 0.568928,-0.196077 -0.08276,0.728856 0.0097,0.830764 0.741704,0.81739 0.400014,-0.0073 0.39542,-0.04357 -0.04828,-0.380982 -0.269702,-0.205103 -0.383382,-0.380623 -0.252621,-0.390052 0.130763,-0.0094 0.607207,-0.06562 1.058768,-0.124857 0.787023,-0.103257 1.102843,0.190887 0.564276,0.525544 -0.288554,0.179302 -0.09392,0.63242 0.271651,0.63242 0.130739,0 0.237709,-0.15716 0.237709,-0.34924 0,-0.192082 0.341039,-0.417814 0.757861,-0.501631 0.887473,-0.178458 0.936346,-0.384674 0.263318,-1.111001 -0.49271,-0.53173 -0.492125,-0.535305 0.158088,-0.963649 0.538347,-0.35465 0.690632,-0.369648 0.86961,-0.08566 0.289891,0.459985 0.27968,0.725267 -0.02791,0.725267 -0.138945,0 -0.252623,0.171444 -0.252623,0.380988 0,0.650511 0.999918,0.441988 1.266967,-0.264216 0.191147,-0.505483 0.340226,-0.596854 0.688457,-0.421962 0.669219,0.336113 2.591747,0.372364 2.591747,0.04887 0,-0.189112 0.140111,-0.198067 0.441926,-0.02823 0.319439,0.179732 0.564152,0.137441 0.882889,-0.152576 0.409264,-0.372386 0.452321,-0.344118 0.599,0.393244 0.194745,0.979016 0.753411,1.517597 1.155177,1.11365 0.153313,-0.154146 0.586855,-0.218313 0.963421,-0.142591 0.484,0.09733 0.730017,0.01886 0.839402,-0.267751 0.233346,-0.611388 1.097252,-0.498833 1.274472,0.166057 0.26199,0.982898 0.178294,1.206456 -0.451664,1.206456 -0.335992,0 -0.790708,0.06938 -1.010483,0.154172 -0.729517,0.281459 -0.413574,0.607801 0.588435,0.607801 0.787679,0 1.117334,-0.154507 1.625723,-0.761973 0.679457,-0.811867 1.175559,-0.985774 1.175559,-0.412086 0,0.192438 0.16942,0.491256 0.376488,0.66404 0.248447,0.207311 0.323206,0.541817 0.219819,0.983564 l -0.156666,0.669413 0.532446,-0.554823 c 0.496542,-0.517406 0.583068,-0.529421 1.283286,-0.178216 0.48022,0.240868 0.700123,0.509497 0.61012,0.745313 -0.08703,0.228021 0.01417,0.36871 0.265236,0.36871 0.446042,0 0.565058,-0.887118 0.153337,-1.142955 -0.442573,-0.275009 -0.271425,-0.888968 0.247807,-0.888968 0.340364,0 0.549436,0.223409 0.65365,0.698473 0.08427,0.384161 0.180808,0.811686 0.214528,0.950053 0.03372,0.138366 0.222716,-0.08178 0.419992,-0.489228 0.197272,-0.407443 0.529196,-0.792103 0.737607,-0.854804 0.29159,-0.08773 0.311403,-0.04172 0.08596,0.199608 -0.210069,0.224867 -0.220084,0.52383 -0.03538,1.056527 0.220312,0.635414 0.156802,0.896029 -0.438915,1.801099 -0.419041,0.636658 -0.584984,1.095562 -0.416565,1.152006 0.168848,0.05658 0.220034,0.394931 0.128985,0.852635 -0.125074,0.628766 -0.05844,0.783139 0.388797,0.900731 0.617964,0.162478 0.702363,0.646747 0.18758,1.076297 -0.272317,0.227227 -0.44705,0.19846 -0.770636,-0.126882 -0.389542,-0.391652 -0.443216,-0.387867 -0.776589,0.05473 -0.446927,0.593361 -0.459105,0.785384 -0.05842,0.920974 0.247544,0.08377 0.242386,0.19626 -0.02388,0.52061 -0.186812,0.227562 -0.286974,0.56046 -0.222584,0.73978 0.06986,0.194539 0.251578,0.0379 0.450594,-0.388406 0.21756,-0.466027 0.592146,-0.766439 1.07735,-0.864005 0.473487,-0.09521 0.892236,-0.42261 1.152164,-0.900825 0.848036,-1.560187 1.145796,-1.808407 1.767835,-1.47369 0.455878,0.245299 0.50868,0.377112 0.267918,0.668787 -0.235236,0.284982 -0.225142,0.364111 0.04684,0.367161 0.279292,0.0032 0.275268,0.04933 -0.02069,0.237563 -0.202788,0.128977 -0.536225,0.138683 -0.744189,0.02168 -0.27005,-0.151946 -0.470123,-0.03114 -0.706238,0.426444 -0.43281,0.838766 -0.406716,1.085367 0.05057,0.477903 0.304776,-0.40487 0.387563,-0.421582 0.509233,-0.102797 0.209174,0.548053 -0.05766,1.779503 -0.438176,2.022249 -0.240221,0.153248 -0.211306,0.208196 0.11107,0.211071 0.36022,0.0033 0.394174,0.114052 0.195719,0.638864 -0.154389,0.408276 -0.152156,0.634977 0.0062,0.634977 0.392514,0 0.284963,0.692733 -0.132561,0.853823 -0.208415,0.08041 -0.378935,0.378375 -0.378935,0.66215 0,0.540168 0.193751,0.620186 0.869963,0.359297 0.314274,-0.121257 0.340496,-0.236056 0.116037,-0.507983 -0.237667,-0.287927 -0.12756,-0.351324 0.610193,-0.351324 1.105988,0 1.328558,0.296471 0.671435,0.894387 -0.525013,0.477706 -0.689487,1.645519 -0.231753,1.645519 0.147142,0 0.207486,0.09768 0.134096,0.217074 -0.07339,0.119387 0.147259,0.482197 0.490333,0.806241 0.778786,0.7356 0.816964,1.78107 0.0819,2.242619 -0.472148,0.296459 -0.522322,0.289024 -0.389966,-0.05777 0.08355,-0.218898 0.0551,-0.458154 -0.06321,-0.531673 -0.118317,-0.07352 -0.289985,0.06248 -0.381489,0.302236 -0.132991,0.348454 -0.20866,0.367109 -0.377158,0.093 -0.115933,-0.188603 -0.344582,-0.259772 -0.508108,-0.158161 -0.217634,0.135236 -0.186935,0.307382 0.114524,0.6423 0.459522,0.510519 0.07999,0.985007 -0.453152,0.566533 -0.440704,-0.345916 -1.441504,-0.55652 -1.441504,-0.303348 0,0.118595 -0.226897,0.171695 -0.50422,0.118 -0.662891,-0.128355 -1.178607,0.761275 -0.745481,1.285988 0.165596,0.200617 0.457683,0.364754 0.649083,0.364754 0.428722,0 0.429241,0.03848 0.01146,0.848127 -0.307636,0.596188 -0.371043,0.617512 -0.738273,0.248293 -0.506544,-0.509294 -1.198769,-0.262419 -1.198769,0.427521 0,0.5754 0.793268,1.036165 0.953228,0.553678 0.05465,-0.164827 0.203564,-0.299684 0.330924,-0.299684 0.30614,0 0.29608,0.928165 -0.01642,1.515251 -0.364152,0.684115 0.191717,0.797038 1.926987,0.391475 0.811028,-0.189555 1.519349,-0.299645 1.574054,-0.244645 0.0547,0.055 -0.256264,0.303578 -0.691028,0.552407 -0.434764,0.248827 -0.7912,0.581288 -0.792078,0.738804 -8.33e-4,0.157512 -0.193936,0.443249 -0.429018,0.634973 -0.362684,0.29579 -0.395622,0.295506 -0.217458,-0.0019 0.144182,-0.240651 0.102196,-0.314324 -0.134004,-0.235165 -0.189186,0.06341 -0.421036,0.392548 -0.515226,0.731426 -0.09419,0.338881 -0.182584,0.488326 -0.196434,0.332105 -0.04387,-0.494973 -2.107151,-0.628146 -2.612199,-0.168609 -0.408318,0.37153 -0.444426,0.367704 -0.444426,-0.04707 0,-0.876489 -0.686471,0.08225 -0.830174,1.159436 -0.17036,1.27704 -0.34152,1.467989 -0.77794,0.867911 -0.192682,-0.264937 -0.506332,-0.402953 -0.724468,-0.318793 -0.211572,0.08163 -0.510314,0.02211 -0.663873,-0.132294 -0.505793,-0.508536 -0.648649,0.0673 -0.204316,0.82357 0.425073,0.723496 0.42168,0.749338 -0.139591,1.062646 -0.316394,0.176616 -0.651043,0.325168 -0.743671,0.330117 -0.09263,0.0049 -0.253672,0.09472 -0.357879,0.199496 -0.104205,0.10477 -0.397878,0.19049 -0.652605,0.19049 -0.55431,0 -0.599542,0.33196 -0.101823,0.747274 0.288983,0.241136 0.41719,0.196512 0.64044,-0.222889 0.15352,-0.288414 0.495775,-0.524385 0.760571,-0.524385 0.264793,0 0.551703,-0.114294 0.637573,-0.253986 0.242638,-0.394732 0.702731,-0.298869 0.545302,0.113611 -0.107584,0.281875 0.136499,0.388746 1.04661,0.458263 l 1.186912,0.09066 -0.821018,0.359393 c -0.581806,0.25468 -0.821016,0.528175 -0.821016,0.938685 0,0.318614 -0.101519,0.579294 -0.22559,0.579294 -0.124079,0 -0.292038,0.174086 -0.373249,0.386859 -0.12006,0.314567 -0.05526,0.33715 0.346721,0.120851 0.271904,-0.146309 0.767658,-0.197054 1.101678,-0.112763 0.33402,0.08429 1.010504,0.04132 1.503298,-0.09549 0.715005,-0.198493 0.869945,-0.180485 0.767038,0.08914 -0.07093,0.185835 -0.46088,0.454215 -0.866564,0.596404 -0.405686,0.142188 -0.737607,0.383807 -0.737607,0.536927 0,0.181752 -0.591951,0.252469 -1.70519,0.203706 -0.937854,-0.04107 -1.951722,0.01578 -2.253038,0.126355 -0.419956,0.154117 -0.572117,0.09482 -0.651801,-0.253991 -0.08667,-0.379407 -0.157437,-0.344178 -0.425761,0.211954 -0.271118,0.56193 -0.451709,0.649395 -1.146479,0.555262 -0.588759,-0.07977 -0.868039,0.0019 -0.976271,0.285466 -0.255059,0.668284 -0.926134,0.456602 -1.085046,-0.342267 -0.09295,-0.467283 -0.346342,-0.793223 -0.688388,-0.885501 -0.783377,-0.21133 -2.436619,-0.185815 -2.432084,0.03753 0.0094,0.462522 0.432923,0.78605 1.133745,0.86605 0.560035,0.06392 0.778049,0.23513 0.837767,0.657893 0.04447,0.314814 -0.05277,0.571479 -0.216494,0.571479 -0.163467,0 -0.236597,-0.158827 -0.162508,-0.352951 0.09285,-0.243264 -0.04603,-0.341932 -0.44683,-0.317487 l -0.581539,0.03547 0.638226,0.594815 c 0.528346,0.492405 0.738851,0.548715 1.222698,0.327065 0.369586,-0.169309 0.639707,-0.17789 0.734713,-0.02332 0.08263,0.134422 -0.02699,0.244412 -0.2436,0.244412 -0.271552,0 -0.39384,0.243166 -0.39384,0.783133 0,0.519273 -0.106396,0.743918 -0.315776,0.666727 -0.173677,-0.06403 -0.284538,-0.253491 -0.24636,-0.42103 0.03817,-0.167541 -0.05473,-0.227472 -0.206471,-0.133187 -0.155918,0.09688 -0.335726,-0.05867 -0.413508,-0.357709 -0.0757,-0.291028 -0.483388,-0.702563 -0.905982,-0.914522 -0.908786,-0.455819 -0.943351,-0.460634 -0.943351,-0.131395 0,0.139692 0.156603,0.25399 0.348001,0.25399 0.191399,0 0.478652,0.158285 0.638339,0.351737 0.231985,0.281041 0.157719,0.385208 -0.369481,0.518242 -0.741054,0.187001 -1.627338,-0.01947 -1.627338,-0.379112 0,-0.13028 -0.29636,-0.236874 -0.658582,-0.236874 -0.478608,0 -0.619244,0.103053 -0.514646,0.377109 0.183816,0.481624 -0.619177,0.937849 -1.111858,0.631707 -0.289261,-0.179745 -0.29935,-0.289895 -0.04954,-0.541058 0.360727,-0.362684 0.41127,-0.721751 0.101594,-0.721751 -0.116638,0 -0.34156,0.285741 -0.499826,0.634977 -0.196191,0.432929 -0.490438,0.634977 -0.924724,0.634977 -0.699132,0 -0.85765,-0.368488 -0.258032,-0.599832 0.506936,-0.195585 0.485626,-0.924112 -0.02702,-0.924112 -0.257064,0 -0.352629,-0.139737 -0.260552,-0.380984 0.07998,-0.209547 0.04342,-0.380987 -0.08123,-0.380987 -0.513663,0 -0.961114,0.804452 -1.120846,2.015116 -0.219312,1.662211 -0.557972,1.674038 -0.443666,0.01547 0.07447,-1.080684 0.02707,-1.248217 -0.315778,-1.115941 -0.250588,0.09668 -0.40341,0.02151 -0.40341,-0.198468 0,-0.194764 -0.228503,-0.371416 -0.507778,-0.392568 -0.279277,-0.02114 -0.690687,-0.222362 -0.914241,-0.447133 -0.823559,-0.82802 -0.66149,-0.09175 0.176182,0.800425 0.476799,0.507819 0.724806,0.842246 0.55113,0.743174 -0.457447,-0.26094 -0.400834,0.604326 0.07406,1.131919 0.33095,0.367686 0.335602,0.454029 0.03078,0.571633 -0.197481,0.07619 -0.476054,0.02088 -0.619051,-0.122882 z m 2.200728,-3.613134 c 0.202227,-0.244991 0.212011,-0.410449 0.03093,-0.522973 -0.35275,-0.219194 -0.77013,0.06011 -0.77013,0.51535 0,0.466345 0.357496,0.470033 0.739194,0.0077 z M 59.12978,69.497088 c -0.332153,-0.111321 -1.036487,0.3969 -1.036487,0.747881 0,0.12581 0.299722,0.03129 0.666048,-0.210031 0.366327,-0.24133 0.533023,-0.483362 0.370439,-0.53785 z m -11.548632,-0.09724 c -0.08197,-0.133336 -0.313946,-0.178797 -0.515522,-0.101027 -0.204663,0.07896 -0.298346,0.03053 -0.212157,-0.10968 0.08489,-0.138095 0.04066,-0.251081 -0.09828,-0.251081 -0.415792,0 -0.623579,0.549994 -0.28684,0.759236 0.40984,0.254669 1.305086,0.01538 1.1128,-0.297448 z m 5.156591,0.249383 c 0.479386,-0.481984 0.363144,-0.93338 -0.202097,-0.784765 -0.27963,0.07353 -0.505241,0.346449 -0.505241,0.611196 0,0.548447 0.268868,0.614419 0.707338,0.173569 z M 41.323844,69.143543 c 0.104203,-0.169515 0.03378,-0.3535 -0.160201,-0.418507 -0.190382,-0.0638 -0.613556,-0.384864 -0.940381,-0.713464 -0.715399,-0.719276 -0.739724,-0.722177 -1.057076,-0.125985 -0.507132,0.952725 1.592731,2.176985 2.157658,1.257956 z m -1.41923,-0.205482 c 0,-0.298114 0.194172,-0.298114 0.884172,0 0.447708,0.193428 0.42613,0.220318 -0.189463,0.236136 -0.382091,0.0098 -0.694709,-0.09644 -0.694709,-0.236136 z m 8.5891,-0.408163 c 0,-0.267838 -0.137376,-0.355156 -0.399594,-0.253991 -0.219774,0.0848 -0.475552,0.15592 -0.568397,0.15806 -0.226019,0.0053 0.536674,0.495241 0.778524,0.500205 0.104207,0.0023 0.189467,-0.179784 0.189467,-0.404274 z M 62.77716,67.905201 c 0.296233,-0.481909 -0.135812,-0.600825 -0.575776,-0.15848 -0.39382,0.395963 -0.394512,0.429369 -0.0089,0.429369 0.229985,0 0.493086,-0.121903 0.58467,-0.270889 z M 50.514677,67.160126 c 0,-0.139695 -0.177229,-0.253992 -0.39384,-0.253992 -0.216613,0 -0.330941,-0.102319 -0.25407,-0.227375 0.07688,-0.125055 -0.0394,-0.296499 -0.258375,-0.380987 -1.128652,-0.435452 -1.162042,0.112103 -0.04104,0.673035 1.012501,0.506636 0.947326,0.493613 0.947326,0.189319 z m -14.90461,-2.190021 c 0,-0.05273 -0.17052,-0.0959 -0.37893,-0.0959 -0.208415,0 -0.378932,0.185441 -0.378932,0.412087 0,0.3375 0.06857,0.354855 0.378932,0.0959 0.20841,-0.173907 0.37893,-0.359347 0.37893,-0.412088 z m 23.37524,-4.400981 c -0.09298,-0.151268 -0.287025,-0.20173 -0.431197,-0.112143 -0.169728,0.105465 -0.14389,0.236361 0.07329,0.371316 0.405396,0.251905 0.589928,0.118283 0.357904,-0.259173 z m -6.309751,-6.086402 c -0.241652,-0.393117 -0.566162,-0.341453 -0.741545,0.118057 -0.08627,0.226033 -0.04393,0.327983 0.09928,0.239001 0.13735,-0.08535 0.249727,-0.01127 0.249727,0.1646 0,0.234807 0.0747,0.244675 0.281134,0.03713 0.154621,-0.15546 0.204754,-0.406911 0.111401,-0.55878 z m -5.764936,0.0057 c -0.02002,-0.267252 -0.173974,-0.426831 -0.347278,-0.359965 -0.171222,0.06607 -0.249484,0.282096 -0.173924,0.480077 0.200098,0.524279 0.563212,0.440598 0.521202,-0.120112 z m -3.216695,-8.33e-4 c 0,-0.124749 -0.179817,-0.296194 -0.399594,-0.380983 -0.617982,-0.238431 -0.699632,-0.186736 -0.358272,0.226814 0.34853,0.42223 0.757866,0.505496 0.757866,0.154169 z M 53.922031,53.508 c -0.04655,-0.244465 -0.09333,-0.479803 -0.103959,-0.522969 -0.01063,-0.04317 -0.138529,-0.0044 -0.284216,0.08611 -0.181078,0.112523 -0.171291,0.277985 0.03093,0.522973 0.387512,0.469461 0.459705,0.452057 0.357238,-0.08611 z m 18.318011,-1.841432 c 0,-0.530975 -0.381594,-0.868787 -0.734014,-0.649792 -0.131795,0.08189 -0.106778,0.402056 0.05902,0.755277 0.320651,0.683139 0.674998,0.627765 0.674998,-0.105485 z m -29.390398,0.139896 c -0.09864,-0.258436 -0.0191,-0.321225 0.267031,-0.210823 0.271426,0.104715 0.34651,0.05797 0.224852,-0.139935 -0.100468,-0.163436 -0.05557,-0.297151 0.09977,-0.297151 0.155342,0 0.211036,-0.116161 0.123766,-0.258134 -0.08727,-0.141977 -0.292918,-0.177185 -0.456996,-0.07824 -0.169947,0.102481 -0.149126,-0.0051 0.04838,-0.24985 0.190692,-0.236361 0.231742,-0.429742 0.09123,-0.429742 -0.14052,0 -0.239695,-0.187716 -0.220399,-0.417147 0.0193,-0.229435 -0.08596,-0.460495 -0.233906,-0.51347 -0.173872,-0.06226 -0.250732,0.422057 -0.217346,1.369612 0.05777,1.639998 0.05007,1.592928 0.260746,1.592928 0.08434,0 0.09012,-0.165621 0.01284,-0.368051 z m -1.075653,-3.251318 c 0.191439,-0.131225 0.160004,-0.268305 -0.101032,-0.440594 -0.444709,-0.293515 -1.771989,-0.344323 -1.76031,-0.06738 0.01262,0.299717 0.656508,1.07946 0.891357,1.07946 0.116675,0 0.07573,-0.137156 -0.091,-0.304789 -0.444914,-0.447326 -0.369899,-0.681169 0.172746,-0.538492 0.326577,0.08586 0.444591,0.297558 0.37613,0.674692 -0.05922,0.326189 -0.03188,0.394713 0.06723,0.168589 0.09184,-0.209543 0.292041,-0.466708 0.444884,-0.571482 z m 14.466752,-0.560289 c 0,-0.203401 -0.09659,-0.309796 -0.214637,-0.236441 -0.118051,0.07336 -0.149239,0.23977 -0.0693,0.369813 0.204277,0.332317 0.283935,0.294896 0.283935,-0.133372 z m -13.886414,-0.84724 c 0.178622,-0.114167 0.21763,-0.331276 0.09528,-0.530313 -0.161943,-0.263449 -0.325995,-0.273064 -0.751601,-0.04405 -0.299446,0.161126 -0.477712,0.401522 -0.396153,0.534204 0.177471,0.288709 0.636214,0.306214 1.052469,0.04017 z m 10.484456,-0.61168 c -0.235777,-0.237059 -0.370508,-0.237059 -0.606287,0 -0.235777,0.237054 -0.168414,0.304785 0.303144,0.304785 0.471561,0 0.538924,-0.06773 0.303143,-0.304785 z m -7.926393,-1.388605 c -0.122913,-0.637201 -0.713229,-0.724695 -0.713229,-0.105708 0,0.311984 0.163115,0.529146 0.397454,0.529146 0.23525,0 0.364122,-0.172807 0.315775,-0.423438 z m -1.852611,-3.234765 c 0.40977,-0.381822 0.540724,-0.648614 0.34979,-0.712603 -0.167858,-0.05626 -0.31465,-0.513185 -0.326198,-1.015396 -0.01154,-0.502205 -0.106744,-0.860265 -0.211539,-0.795685 -0.104795,0.06458 -0.141295,0.622985 -0.08112,1.240894 0.06363,0.653228 -0.0055,1.194856 -0.165033,1.294017 -0.178936,0.111185 -0.224876,-0.02007 -0.132001,-0.377156 0.16028,-0.616245 -0.181776,-0.756409 -0.406843,-0.166715 -0.13317,0.34892 0.02777,1.14296 0.231678,1.14296 0.04745,0 0.381015,-0.274642 0.741259,-0.610316 z M 62.4317,40.954843 c 0.433502,-0.435852 0.455742,-0.51606 0.10565,-0.380987 -0.243898,0.0941 -0.547832,0.171092 -0.67541,0.171092 -0.127576,0 -0.23196,0.171445 -0.23196,0.380985 0,0.513504 0.153374,0.48077 0.80172,-0.17109 z m 0.461383,0.298086 c 0,-0.139696 -0.113677,-0.253991 -0.25262,-0.253991 -0.13894,0 -0.252619,0.114295 -0.252619,0.253991 0,0.139693 0.113679,0.253991 0.252619,0.253991 0.138943,0 0.25262,-0.114298 0.25262,-0.253991 z M 44.004659,40.681452 c -0.141002,-0.174619 -0.312256,-0.546079 -0.380558,-0.825473 -0.09994,-0.408786 -0.129914,-0.379849 -0.153496,0.148163 -0.03058,0.684932 0.140408,0.994796 0.548974,0.994796 0.145562,0 0.139636,-0.126084 -0.01493,-0.317486 z M 41.167717,39.29573 c 0,-0.944725 -0.61693,-0.567512 -0.714224,0.436708 -0.07288,0.752235 -0.03548,0.813919 0.315774,0.520819 0.219147,-0.182864 0.39845,-0.613751 0.39845,-0.957527 z m 10.104824,-2.668687 c 0,-0.109964 -0.04754,-0.199936 -0.105649,-0.199936 -0.05811,0 -0.285466,-0.06938 -0.505241,-0.154169 -0.258109,-0.09958 -0.399593,-0.01522 -0.399593,0.238201 0,0.235806 0.201606,0.377107 0.505242,0.354113 0.277881,-0.02106 0.505241,-0.128237 0.505241,-0.238209 z m 9.058309,36.203312 c -0.653694,-0.172222 -0.28028,-1.098544 0.442836,-1.098544 0.475758,0 0.582906,0.11593 0.515794,0.558067 -0.09058,0.596787 -0.298955,0.71427 -0.95863,0.540477 z M 36.194704,71.41432 c -0.418814,-0.654879 -0.837259,-1.526228 -0.837259,-1.74347 0,-0.437209 0.448139,-0.217942 0.578437,0.283026 0.0986,0.379077 0.346462,0.508968 0.97679,0.511869 0.464568,0.0022 1.015188,0.118608 1.223598,0.258819 0.327986,0.220652 0.313005,0.305499 -0.111436,0.631085 -0.598474,0.459087 -1.554456,0.489734 -1.83013,0.05867 z m 32.178859,-1.76073 c 0.06266,-0.32956 0.31547,-0.867847 0.561802,-1.196183 l 0.447876,-0.596985 0.575292,0.812309 c 0.655826,0.926017 0.520355,1.170325 -0.782332,1.41084 -0.861776,0.159111 -0.909754,0.133406 -0.802638,-0.429981 z m -37.582542,-2.261179 -1.156046,-0.512975 -0.04992,-1.943897 c -0.02747,-1.069148 -0.173027,-2.020401 -0.323491,-2.113901 -0.195235,-0.121317 -0.193511,-0.219745 0.006,-0.34373 0.413864,-0.257166 0.732407,0.02717 1.313531,1.172427 0.286813,0.565252 0.739906,1.085162 1.006873,1.155352 0.602517,0.158417 0.625137,0.468089 0.05038,0.689844 -0.372128,0.143572 -0.381254,0.201289 -0.06316,0.399305 0.213829,0.13311 0.371853,0.612988 0.371853,1.129223 0,0.493754 0,0.894045 0,0.889533 0,-0.0046 -0.52022,-0.239047 -1.156048,-0.521181 z m 35.13351,-1.360401 c 0,-0.217786 -0.142098,-0.367401 -0.315778,-0.33248 -0.173674,0.03493 -0.315774,-0.104782 -0.315774,-0.310457 0,-0.244782 0.391316,-0.441122 1.132842,-0.568396 0.94981,-0.163026 1.212844,-0.114005 1.627996,0.3034 0.599326,0.60258 0.514508,0.712965 -0.646652,0.84162 -0.494424,0.05478 -1.030282,0.1812 -1.190796,0.280942 -0.173036,0.107526 -0.291838,0.02015 -0.291838,-0.214629 z M 28.54056,64.17561 c -0.0022,-0.314312 0.109811,-0.571479 0.248751,-0.571479 0.316514,0 0.316514,0.269546 0,0.761973 -0.198021,0.308083 -0.245626,0.271625 -0.248751,-0.190494 z m 38.141833,-0.468262 c 0,-0.196465 -0.1421,-0.36653 -0.315774,-0.377927 -0.17368,-0.0114 0.06691,-0.188588 0.534624,-0.393769 0.981029,-0.430354 1.075192,-0.394309 0.884565,0.338601 -0.16131,0.620206 -1.103415,0.989985 -1.103415,0.433095 z m -16.119625,-0.29371 c 0.107364,-0.560514 0.556654,-0.548316 0.665137,0.01807 0.04977,0.259844 -0.08082,0.426423 -0.334297,0.426423 -0.260187,0 -0.384092,-0.166463 -0.33084,-0.444481 z m -5.1005,0.01447 c 0,-0.284739 0.534344,-0.839942 0.808384,-0.839942 0.111153,0 0.202097,0.171443 0.202097,0.380983 0,0.209544 -0.04754,0.380986 -0.10565,0.380986 -0.05811,0 -0.285464,0.06938 -0.505238,0.154172 -0.21978,0.08479 -0.399593,0.0505 -0.399593,-0.0762 z m 6.199992,-0.314411 c -0.07994,-0.130044 -0.02981,-0.308233 0.111401,-0.395977 0.141206,-0.08774 0.25674,0.01865 0.25674,0.236441 0,0.44614 -0.151589,0.511831 -0.368141,0.159536 z m -1.147583,-0.733436 c 0,-0.306959 0.479273,-0.664845 0.654465,-0.488702 0.06358,0.06393 -0.05766,0.260813 -0.269426,0.437519 -0.240089,0.200334 -0.385039,0.219606 -0.385039,0.05118 z M 39.63247,59.180184 40.20626,58.566102 39.61335,58.452801 c -0.326101,-0.06233 -0.05964,-0.128865 0.592133,-0.147892 0.651768,-0.01902 1.255294,-0.148885 1.341164,-0.288581 0.191926,-0.312221 1.389412,-0.339582 1.389412,-0.03175 0,0.192594 -1.140164,0.580858 -1.89465,0.645188 -0.138943,0.01183 -0.459813,0.278704 -0.713043,0.593017 -0.253233,0.314314 -0.642506,0.571479 -0.865052,0.571479 -0.32445,0 -0.290931,-0.121685 0.169156,-0.61408 z m -8.316955,-1.568537 c 0,-0.283143 1.68913,-1.613196 2.057094,-1.619798 0.228282,-0.0042 0.48049,-0.17889 0.56047,-0.38843 0.07998,-0.209545 0.347914,-0.371964 0.595419,-0.360935 0.264655,0.01178 0.319946,0.07283 0.13424,0.148163 -0.173674,0.07046 -0.315774,0.347175 -0.315774,0.614922 0,0.267749 -0.164504,0.486819 -0.365565,0.486819 -0.201058,0 -0.883134,0.276686 -1.515724,0.614863 -0.632588,0.338171 -1.15016,0.565151 -1.15016,0.504396 z m -2.008501,-1.231159 c -0.166113,-0.20124 -0.482877,-0.29611 -0.703923,-0.21083 -0.29403,0.113445 -0.347326,0.05827 -0.198566,-0.205589 0.146789,-0.260355 0.08554,-0.249649 -0.220233,0.03852 -0.26196,0.246859 -0.709268,0.356997 -1.172376,0.288659 -0.933514,-0.137757 -0.949659,-0.381596 -0.05411,-0.817185 0.556832,-0.270839 0.607153,-0.358207 0.253552,-0.440203 -0.351376,-0.08147 -0.388124,-0.201924 -0.180577,-0.591835 0.186611,-0.350574 0.178675,-0.489538 -0.02796,-0.489538 -0.163969,0 -0.219706,-0.180341 -0.12911,-0.417716 0.08897,-0.233117 -0.02353,-0.62097 -0.254546,-0.877636 -0.308655,-0.34291 -0.370361,-0.70512 -0.242544,-1.423715 0.09429,-0.530087 0.170449,-1.360998 0.169256,-1.846468 -0.0023,-0.872029 0.286225,-1.264786 0.934191,-1.27236 0.218653,-0.0025 0.27762,0.170908 0.17192,0.50575 -0.119966,0.380028 -0.01184,0.570519 0.425062,0.749002 l 0.58594,0.239363 -0.568392,0.16959 c -0.639403,0.190771 -0.77041,0.61832 -0.189468,0.61832 0.208412,0 0.37893,0.114297 0.37893,0.253992 0,0.139695 -0.23683,0.25399 -0.52629,0.25399 -0.310394,0 -0.481855,0.130243 -0.417969,0.31749 0.06348,0.186052 0.545907,0.317488 1.165311,0.317488 1.153266,0 1.72274,0.497375 1.239608,1.082669 -0.34998,0.423989 0.371949,1.480877 1.515872,2.219209 1.145222,0.739171 1.160928,1.038544 0.04889,0.93192 -0.791302,-0.07588 -0.983873,-2.89e-4 -1.123093,0.44072 -0.196964,0.623949 -0.460532,0.673825 -0.879384,0.166401 z m 18.437726,-3.42727 c -0.398482,-0.748606 -0.319916,-0.828856 0.367872,-0.375753 0.346162,0.228039 0.56681,0.516417 0.490334,0.640827 -0.22658,0.368608 -0.57881,0.259816 -0.858206,-0.265074 z m 12.116898,0.141694 c 0,-0.235579 0.175422,-0.496004 0.389826,-0.578725 0.612991,-0.2365 0.672354,0.04057 0.116962,0.545923 -0.462472,0.420802 -0.506788,0.42367 -0.506788,0.0328 z m 13.209594,-2.698799 c -0.03636,-0.522527 0.06273,-0.761469 0.315774,-0.761469 0.202821,0 0.368761,-0.114297 0.368761,-0.25399 0,-0.389368 0.493335,-0.302245 0.963115,0.170081 0.363715,0.365687 0.369926,0.44146 0.04512,0.550314 -0.207172,0.06943 -0.402904,0.07862 -0.434964,0.02042 -0.03207,-0.05821 -0.237447,0.151332 -0.456413,0.465646 -0.534658,0.76747 -0.738065,0.718995 -0.801385,-0.190999 z M 25.000004,47.422469 c 0,-0.320807 0.980848,-1.597558 1.227304,-1.597558 0.09908,0 0.180154,0.228589 0.180154,0.507981 0,0.279388 -0.10879,0.50798 -0.24175,0.50798 -0.132965,0 -0.449644,0.189156 -0.703732,0.420352 -0.254088,0.231188 -0.461976,0.303757 -0.461976,0.161245 z m 10.031197,-2.361174 c -0.169587,-0.652017 0.05883,-2.245095 0.347619,-2.424552 0.442061,-0.274691 0.732586,0.837074 0.444935,1.702657 -0.382674,1.151539 -0.623704,1.37108 -0.792554,0.721895 z m 19.1763,-0.292915 c -0.183218,-0.921053 -0.03039,-1.204557 0.410424,-0.761356 0.238936,0.240235 0.398091,0.183769 0.73037,-0.259129 0.4082,-0.5441 0.414194,-0.519461 0.152952,0.628362 -0.329782,1.448972 -1.040658,1.664435 -1.293746,0.392123 z M 27.196617,44.315478 c 0.07474,-0.28737 0.01709,-0.522497 -0.12814,-0.522497 -0.453653,0 -1.043339,-0.758815 -0.89392,-1.150304 0.155687,-0.407921 1.235664,-0.513824 1.463304,-0.143492 0.07782,0.12658 0.355886,0.173773 0.61795,0.104868 0.262064,-0.0689 0.535717,-0.02892 0.608116,0.08887 0.132334,0.215277 -0.618209,1.194832 -1.389175,1.813045 -0.360575,0.289135 -0.396488,0.264544 -0.278135,-0.190494 z M 51.5805,42.777019 c 0.01187,-0.420296 0.160355,-0.76197 0.331102,-0.76197 0.401229,0 0.933506,-0.649971 0.991746,-1.211032 0.05959,-0.574174 0.628384,-1.935989 0.755299,-1.808383 0.05412,0.05441 -0.02314,0.670313 -0.171698,1.36867 -0.148546,0.698369 -0.269156,1.584071 -0.268023,1.968232 0.0012,0.503682 -0.124568,0.698476 -0.452008,0.698476 -0.249746,0 -0.524336,0.114296 -0.610206,0.25399 -0.306297,0.498282 -0.59741,0.241641 -0.576212,-0.507983 z m 2.822771,-0.655749 c 0.08434,-0.220966 0.153335,-0.752787 0.153335,-1.18182 l 0,-0.780062 0.494133,0.57283 c 0.457262,0.530086 0.464518,0.618266 0.09726,1.181818 -0.443518,0.680563 -0.982636,0.830583 -0.744724,0.207234 z m -1.867629,-4.820036 c 0,-0.21779 0.11368,-0.325338 0.25262,-0.239005 0.138943,0.08634 0.252621,0.264529 0.252621,0.395979 0,0.131448 -0.113678,0.239001 -0.252621,0.239001 -0.13894,0 -0.25262,-0.178191 -0.25262,-0.395975 z m -15.877666,-2.98756 c -0.261518,-0.316822 -0.236982,-0.432747 0.138032,-0.65209 0.425622,-0.248949 0.426557,-0.267287 0.014,-0.274494 -0.243147,-0.0042 -0.442084,0.106572 -0.442084,0.246268 0,0.331026 -0.681813,0.329201 -0.885632,-0.0023 -0.08667,-0.140998 0.1901,-0.455313 0.615046,-0.698475 0.949922,-0.543564 0.95874,-0.652368 0.08112,-1.001042 -0.688701,-0.273616 -0.686285,-0.276235 0.279648,-0.30302 0.756107,-0.02097 0.941783,-0.112361 0.828943,-0.408005 -0.07997,-0.209544 -0.04922,-0.380988 0.06835,-0.380988 0.117565,0 0.355277,0.171444 0.528245,0.380988 0.172964,0.20954 0.471084,0.380983 0.662482,0.380983 0.191398,0 0.347998,0.235337 0.347998,0.522972 0,0.287633 0.11368,0.452335 0.252622,0.365996 0.13894,-0.08634 0.25262,0.0117 0.25262,0.217838 0,0.206144 -0.142099,0.432778 -0.315776,0.50363 -0.249334,0.101722 -0.246816,0.177696 0.01196,0.361076 0.264994,0.187789 0.257217,0.291089 -0.04062,0.53961 -0.620211,0.517519 -2.037621,0.636453 -2.396965,0.201123 z m 25.224628,-0.536452 c 0,-0.207344 -0.29619,-0.398721 -0.687914,-0.444485 l -0.68791,-0.08037 0.71969,-0.471275 c 0.509645,-0.33373 0.771604,-0.386816 0.89757,-0.181889 0.09784,0.159159 0.367736,0.216136 0.599774,0.126609 0.608126,-0.234621 0.529325,0.373289 -0.122004,0.941246 -0.653614,0.569952 -0.719206,0.579998 -0.719206,0.11016 z M 46.715948,32.541066 c -0.34217,-0.139976 -0.821069,-0.230027 -1.064216,-0.20012 -0.243147,0.02992 -0.442087,-0.04423 -0.442087,-0.16477 0,-0.403984 0.600897,-0.828736 1.172408,-0.828736 0.311365,0 0.635317,-0.112575 0.719896,-0.250162 0.09533,-0.155088 -0.138176,-0.191462 -0.61435,-0.09571 l -0.768128,0.154456 0.286985,-0.856755 c 0.392256,-1.171049 0.729016,-1.548328 1.257923,-1.409264 0.246395,0.06478 0.649307,-0.03022 0.895363,-0.211112 0.502518,-0.369443 2.1166,-0.214726 2.414224,0.231413 0.308286,0.462133 0.216615,0.913189 -0.185598,0.913189 -0.208414,0 -0.378932,0.171445 -0.378932,0.380989 0,0.209541 0.08526,0.381879 0.189466,0.382964 0.337775,0.0036 0.759236,1.211504 0.54455,1.560761 -0.165441,0.269138 -0.271594,0.273739 -0.5214,0.02258 -0.418882,-0.421154 -1.343616,-0.40046 -1.705684,0.03818 -0.416051,0.504032 -1.080535,0.626605 -1.80042,0.332108 z m 6.631958,-0.147108 c 0.111203,-0.580566 0.877777,-0.652469 1.166087,-0.109376 0.208784,0.393298 0.136478,0.463806 -0.499854,0.487443 -0.553808,0.02058 -0.724086,-0.07605 -0.666233,-0.378067 z m -0.429817,-1.714242 c -0.226326,-0.227556 -0.348125,-0.57979 -0.270665,-0.782747 0.07746,-0.202954 0.140838,-0.642467 0.140838,-0.976691 0,-0.418307 0.23617,-0.730472 0.757861,-1.001709 0.820218,-0.426455 0.900194,-0.360993 0.493162,0.403677 -0.200992,0.377595 -0.170592,0.591902 0.12631,0.890414 0.445198,0.447609 0.51196,0.86483 0.138391,0.86483 -0.138943,0 -0.252621,0.228589 -0.252621,0.50798 0,0.613921 -0.569312,0.661267 -1.133276,0.09425 z m -9.224164,-3.23667 c 0,-0.210205 -0.401026,-0.412995 -1.010484,-0.51098 -1.056851,-0.169915 -1.468618,-0.918428 -0.505241,-0.918428 0.336827,0 0.505241,-0.169327 0.505241,-0.50798 0,-0.553648 0.650046,-0.704281 0.822038,-0.190497 0.08286,0.247518 0.198849,0.240661 0.526294,-0.0311 0.367514,-0.305019 0.42001,-0.284181 0.42001,0.166715 0,0.387858 0.123238,0.482902 0.498289,0.384293 0.487449,-0.128166 0.488823,-0.108363 0.06316,0.91016 -0.421307,1.008087 -1.319302,1.483065 -1.319302,0.697817 z"
        id="path2384"/>
    <g
        id="g4837"
        style="fill:#000000;fill-opacity:1">
        <path
            style="fill:#000000;fill-opacity:1"
            d="M 50,80 C 41.716,80 34.216,76.642 28.787,71.213 L 40,60 10,60 10,90 21.716,78.284 C 28.954,85.523 38.954,90 50,90 72.091,90 90,72.092 90,50 L 80,50 C 80,66.569 66.569,80 50,80 Z"
            id="path4827"/>
        <path
            style="fill:#000000;fill-opacity:1"
            d="M 50,10 C 27.909,10 10,27.908 10,50 l 10,0 c 0,-16.569 13.431,-30 30,-30 8.284,0 15.784,3.358 21.213,8.787 L 60,40 90,40 90,10 78.284,21.716 C 71.046,14.477 61.046,10 50,10 Z"
            id="path4829"/>
    </g>
</svg>
